  0
SECTION
  2
HEADER
  9
$ACADVER
  1
AC1024
  9
$ACADMAINTVER
 70
6
  9
$DWGCODEPAGE
  3
ANSI_1252
  9
$LASTSAVEDBY
  1
ezdxf
  9
$INSBASE
 10
0.0
 20
0.0
 30
0.0
  9
$EXTMIN
 10
1e+20
 20
1e+20
 30
1e+20
  9
$EXTMAX
 10
-1e+20
 20
-1e+20
 30
-1e+20
  9
$LIMMIN
 10
0.0
 20
0.0
  9
$LIMMAX
 10
420.0
 20
297.0
  9
$ORTHOMODE
 70
0
  9
$REGENMODE
 70
1
  9
$FILLMODE
 70
1
  9
$QTEXTMODE
 70
0
  9
$MIRRTEXT
 70
1
  9
$LTSCALE
 40
1.0
  9
$ATTMODE
 70
1
  9
$TEXTSIZE
 40
2.5
  9
$TRACEWID
 40
1.0
  9
$TEXTSTYLE
  7
Standard
  9
$CLAYER
  8
0
  9
$CELTYPE
  6
ByLayer
  9
$CECOLOR
 62
256
  9
$CELTSCALE
 40
1.0
  9
$DISPSILH
 70
0
  9
$DIMSCALE
 40
1.0
  9
$DIMASZ
 40
2.5
  9
$DIMEXO
 40
0.625
  9
$DIMDLI
 40
3.75
  9
$DIMRND
 40
0.0
  9
$DIMDLE
 40
0.0
  9
$DIMEXE
 40
1.25
  9
$DIMTP
 40
0.0
  9
$DIMTM
 40
0.0
  9
$DIMTXT
 40
2.5
  9
$DIMCEN
 40
2.5
  9
$DIMTSZ
 40
0.0
  9
$DIMTOL
 70
0
  9
$DIMLIM
 70
0
  9
$DIMTIH
 70
0
  9
$DIMTOH
 70
0
  9
$DIMSE1
 70
0
  9
$DIMSE2
 70
0
  9
$DIMTAD
 70
1
  9
$DIMZIN
 70
8
  9
$DIMBLK
  1

  9
$DIMASO
 70
1
  9
$DIMSHO
 70
1
  9
$DIMPOST
  1

  9
$DIMAPOST
  1

  9
$DIMALT
 70
0
  9
$DIMALTD
 70
3
  9
$DIMALTF
 40
0.03937007874
  9
$DIMLFAC
 40
1.0
  9
$DIMTOFL
 70
1
  9
$DIMTVP
 40
0.0
  9
$DIMTIX
 70
0
  9
$DIMSOXD
 70
0
  9
$DIMSAH
 70
0
  9
$DIMBLK1
  1

  9
$DIMBLK2
  1

  9
$DIMSTYLE
  2
ISO-25
  9
$DIMCLRD
 70
0
  9
$DIMCLRE
 70
0
  9
$DIMCLRT
 70
0
  9
$DIMTFAC
 40
1.0
  9
$DIMGAP
 40
0.625
  9
$DIMJUST
 70
0
  9
$DIMSD1
 70
0
  9
$DIMSD2
 70
0
  9
$DIMTOLJ
 70
0
  9
$DIMTZIN
 70
8
  9
$DIMALTZ
 70
0
  9
$DIMALTTZ
 70
0
  9
$DIMUPT
 70
0
  9
$DIMDEC
 70
2
  9
$DIMTDEC
 70
2
  9
$DIMALTU
 70
2
  9
$DIMALTTD
 70
3
  9
$DIMTXSTY
  7
Standard
  9
$DIMAUNIT
 70
0
  9
$DIMADEC
 70
0
  9
$DIMALTRND
 40
0.0
  9
$DIMAZIN
 70
0
  9
$DIMDSEP
 70
44
  9
$DIMATFIT
 70
3
  9
$DIMFRAC
 70
0
  9
$DIMLDRBLK
  1

  9
$DIMLUNIT
 70
2
  9
$DIMLWD
 70
-2
  9
$DIMLWE
 70
-2
  9
$DIMTMOVE
 70
0
  9
$DIMFXL
 40
1.0
  9
$DIMFXLON
 70
0
  9
$DIMJOGANG
 40
0.785398163397
  9
$DIMTFILL
 70
0
  9
$DIMTFILLCLR
 70
0
  9
$DIMARCSYM
 70
0
  9
$DIMLTYPE
  6

  9
$DIMLTEX1
  6

  9
$DIMLTEX2
  6

  9
$DIMTXTDIRECTION
 70
0
  9
$LUNITS
 70
2
  9
$LUPREC
 70
4
  9
$SKETCHINC
 40
1.0
  9
$FILLETRAD
 40
10.0
  9
$AUNITS
 70
0
  9
$AUPREC
 70
2
  9
$MENU
  1
.
  9
$ELEVATION
 40
0.0
  9
$PELEVATION
 40
0.0
  9
$THICKNESS
 40
0.0
  9
$LIMCHECK
 70
0
  9
$CHAMFERA
 40
0.0
  9
$CHAMFERB
 40
0.0
  9
$CHAMFERC
 40
0.0
  9
$CHAMFERD
 40
0.0
  9
$SKPOLY
 70
0
  9
$TDCREATE
 40
2461239.5267824074
  9
$TDUCREATE
 40
2458532.153996898
  9
$TDUPDATE
 40
2461239.5267824074
  9
$TDUUPDATE
 40
2458532.1544311
  9
$TDINDWG
 40
0.0
  9
$TDUSRTIMER
 40
0.0
  9
$USRTIMER
 70
1
  9
$ANGBASE
 50
0.0
  9
$ANGDIR
 70
0
  9
$PDMODE
 70
0
  9
$PDSIZE
 40
0.0
  9
$PLINEWID
 40
0.0
  9
$SPLFRAME
 70
0
  9
$SPLINETYPE
 70
6
  9
$SPLINESEGS
 70
8
  9
$HANDSEED
  5
160
  9
$SURFTAB1
 70
6
  9
$SURFTAB2
 70
6
  9
$SURFTYPE
 70
6
  9
$SURFU
 70
6
  9
$SURFV
 70
6
  9
$UCSBASE
  2

  9
$UCSNAME
  2

  9
$UCSORG
 10
0.0
 20
0.0
 30
0.0
  9
$UCSXDIR
 10
1.0
 20
0.0
 30
0.0
  9
$UCSYDIR
 10
0.0
 20
1.0
 30
0.0
  9
$UCSORTHOREF
  2

  9
$UCSORTHOVIEW
 70
0
  9
$UCSORGTOP
 10
0.0
 20
0.0
 30
0.0
  9
$UCSORGBOTTOM
 10
0.0
 20
0.0
 30
0.0
  9
$UCSORGLEFT
 10
0.0
 20
0.0
 30
0.0
  9
$UCSORGRIGHT
 10
0.0
 20
0.0
 30
0.0
  9
$UCSORGFRONT
 10
0.0
 20
0.0
 30
0.0
  9
$UCSORGBACK
 10
0.0
 20
0.0
 30
0.0
  9
$PUCSBASE
  2

  9
$PUCSNAME
  2

  9
$PUCSORG
 10
0.0
 20
0.0
 30
0.0
  9
$PUCSXDIR
 10
1.0
 20
0.0
 30
0.0
  9
$PUCSYDIR
 10
0.0
 20
1.0
 30
0.0
  9
$PUCSORTHOREF
  2

  9
$PUCSORTHOVIEW
 70
0
  9
$PUCSORGTOP
 10
0.0
 20
0.0
 30
0.0
  9
$PUCSORGBOTTOM
 10
0.0
 20
0.0
 30
0.0
  9
$PUCSORGLEFT
 10
0.0
 20
0.0
 30
0.0
  9
$PUCSORGRIGHT
 10
0.0
 20
0.0
 30
0.0
  9
$PUCSORGFRONT
 10
0.0
 20
0.0
 30
0.0
  9
$PUCSORGBACK
 10
0.0
 20
0.0
 30
0.0
  9
$USERI1
 70
0
  9
$USERI2
 70
0
  9
$USERI3
 70
0
  9
$USERI4
 70
0
  9
$USERI5
 70
0
  9
$USERR1
 40
0.0
  9
$USERR2
 40
0.0
  9
$USERR3
 40
0.0
  9
$USERR4
 40
0.0
  9
$USERR5
 40
0.0
  9
$WORLDVIEW
 70
1
  9
$SHADEDGE
 70
3
  9
$SHADEDIF
 70
70
  9
$TILEMODE
 70
1
  9
$MAXACTVP
 70
64
  9
$PINSBASE
 10
0.0
 20
0.0
 30
0.0
  9
$PLIMCHECK
 70
0
  9
$PEXTMIN
 10
1e+20
 20
1e+20
 30
1e+20
  9
$PEXTMAX
 10
-1e+20
 20
-1e+20
 30
-1e+20
  9
$PLIMMIN
 10
0.0
 20
0.0
  9
$PLIMMAX
 10
420.0
 20
297.0
  9
$UNITMODE
 70
0
  9
$VISRETAIN
 70
1
  9
$PLINEGEN
 70
0
  9
$PSLTSCALE
 70
1
  9
$TREEDEPTH
 70
3020
  9
$CMLSTYLE
  2
Standard
  9
$CMLJUST
 70
0
  9
$CMLSCALE
 40
20.0
  9
$PROXYGRAPHICS
 70
1
  9
$MEASUREMENT
 70
1
  9
$CELWEIGHT
370
-1
  9
$ENDCAPS
280
0
  9
$JOINSTYLE
280
0
  9
$LWDISPLAY
290
0
  9
$INSUNITS
 70
6
  9
$HYPERLINKBASE
  1

  9
$STYLESHEET
  1

  9
$XEDIT
290
1
  9
$CEPSNTYPE
380
0
  9
$PSTYLEMODE
290
1
  9
$FINGERPRINTGUID
  2
{5B745A76-6909-4121-BCE9-A3259D546AAB}
  9
$VERSIONGUID
  2
{7FBA3C6A-57B2-467F-82BE-9E444490EEEE}
  9
$EXTNAMES
290
1
  9
$PSVPSCALE
 40
0.0
  9
$OLESTARTUP
290
0
  9
$SORTENTS
280
127
  9
$INDEXCTL
280
0
  9
$HIDETEXT
280
1
  9
$XCLIPFRAME
280
1
  9
$HALOGAP
280
0
  9
$OBSCOLOR
 70
257
  9
$OBSLTYPE
280
0
  9
$INTERSECTIONDISPLAY
280
0
  9
$INTERSECTIONCOLOR
 70
257
  9
$DIMASSOC
280
2
  9
$PROJECTNAME
  1

  9
$CAMERADISPLAY
290
0
  9
$LENSLENGTH
 40
50.0
  9
$CAMERAHEIGHT
 40
0.0
  9
$STEPSPERSEC
 40
24.0
  9
$STEPSIZE
 40
100.0
  9
$3DDWFPREC
 40
2.0
  9
$PSOLWIDTH
 40
0.005
  9
$PSOLHEIGHT
 40
0.08
  9
$LOFTANG1
 40
1.570796326795
  9
$LOFTANG2
 40
1.570796326795
  9
$LOFTMAG1
 40
0.0
  9
$LOFTMAG2
 40
0.0
  9
$LOFTPARAM
 70
7
  9
$LOFTNORMALS
280
1
  9
$LATITUDE
 40
37.795
  9
$LONGITUDE
 40
-122.394
  9
$NORTHDIRECTION
 40
0.0
  9
$TIMEZONE
 70
-8000
  9
$LIGHTGLYPHDISPLAY
280
1
  9
$TILEMODELIGHTSYNCH
280
1
  9
$CMATERIAL
347
20
  9
$SOLIDHIST
280
0
  9
$SHOWHIST
280
1
  9
$DWFFRAME
280
2
  9
$DGNFRAME
280
2
  9
$REALWORLDSCALE
290
1
  9
$INTERFERECOLOR
 62
256
  9
$CSHADOW
280
0
  9
$SHADOWPLANELOCATION
 40
0.0
  0
ENDSEC
  0
SECTION
  2
CLASSES
  0
CLASS
  1
ACDBDICTIONARYWDFLT
  2
AcDbDictionaryWithDefault
  3
ObjectDBX Classes
 90
0
 91
0
280
0
281
0
  0
CLASS
  1
SUN
  2
AcDbSun
  3
SCENEOE
 90
1153
 91
0
280
0
281
0
  0
CLASS
  1
VISUALSTYLE
  2
AcDbVisualStyle
  3
ObjectDBX Classes
 90
4095
 91
0
280
0
281
0
  0
CLASS
  1
MATERIAL
  2
AcDbMaterial
  3
ObjectDBX Classes
 90
1153
 91
0
280
0
281
0
  0
CLASS
  1
SCALE
  2
AcDbScale
  3
ObjectDBX Classes
 90
1153
 91
0
280
0
281
0
  0
CLASS
  1
TABLESTYLE
  2
AcDbTableStyle
  3
ObjectDBX Classes
 90
4095
 91
0
280
0
281
0
  0
CLASS
  1
MLEADERSTYLE
  2
AcDbMLeaderStyle
  3
ACDB_MLEADERSTYLE_CLASS
 90
4095
 91
0
280
0
281
0
  0
CLASS
  1
DICTIONARYVAR
  2
AcDbDictionaryVar
  3
ObjectDBX Classes
 90
0
 91
0
280
0
281
0
  0
CLASS
  1
CELLSTYLEMAP
  2
AcDbCellStyleMap
  3
ObjectDBX Classes
 90
1152
 91
0
280
0
281
0
  0
CLASS
  1
MENTALRAYRENDERSETTINGS
  2
AcDbMentalRayRenderSettings
  3
SCENEOE
 90
1024
 91
0
280
0
281
0
  0
CLASS
  1
ACDBDETAILVIEWSTYLE
  2
AcDbDetailViewStyle
  3
ObjectDBX Classes
 90
1025
 91
0
280
0
281
0
  0
CLASS
  1
ACDBSECTIONVIEWSTYLE
  2
AcDbSectionViewStyle
  3
ObjectDBX Classes
 90
1025
 91
0
280
0
281
0
  0
CLASS
  1
RASTERVARIABLES
  2
AcDbRasterVariables
  3
ISM
 90
0
 91
0
280
0
281
0
  0
CLASS
  1
LAYOUT
  2
AcDbLayout
  3
ObjectDBX Classes
 90
0
 91
0
280
0
281
0
  0
CLASS
  1
ACDBPLACEHOLDER
  2
AcDbPlaceHolder
  3
ObjectDBX Classes
 90
0
 91
0
280
0
281
0
  0
ENDSEC
  0
SECTION
  2
TABLES
  0
TABLE
  2
VPORT
  5
8
330
0
100
AcDbSymbolTable
 70
1
  0
VPORT
  5
23
330
8
100
AcDbSymbolTableRecord
100
AcDbViewportTableRecord
  2
*Active
 70
0
 10
0.0
 20
0.0
 11
1.0
 21
1.0
 12
0.0
 22
0.0
 13
0.0
 23
0.0
 14
0.5
 24
0.5
 15
0.5
 25
0.5
 16
0.0
 26
0.0
 36
1.0
 17
0.0
 27
0.0
 37
0.0
 40
1000.0
 41
1.34
 42
50.0
 43
0.0
 44
0.0
 50
0.0
 51
0.0
 71
0
 72
1000
 73
1
 74
3
 75
0
 76
0
 77
0
 78
0
281
0
 65
0
146
0.0
  0
ENDTAB
  0
TABLE
  2
LTYPE
  5
2
330
0
100
AcDbSymbolTable
 70
3
  0
LTYPE
  5
24
330
2
100
AcDbSymbolTableRecord
100
AcDbLinetypeTableRecord
  2
ByBlock
 70
0
  3

 72
65
 73
0
 40
0.0
  0
LTYPE
  5
25
330
2
100
AcDbSymbolTableRecord
100
AcDbLinetypeTableRecord
  2
ByLayer
 70
0
  3

 72
65
 73
0
 40
0.0
  0
LTYPE
  5
26
330
2
100
AcDbSymbolTableRecord
100
AcDbLinetypeTableRecord
  2
Continuous
 70
0
  3

 72
65
 73
0
 40
0.0
  0
ENDTAB
  0
TABLE
  2
LAYER
  5
1
330
0
100
AcDbSymbolTable
 70
2
  0
LAYER
  5
27
330
1
100
AcDbSymbolTableRecord
100
AcDbLayerTableRecord
  2
0
 70
0
 62
7
  6
Continuous
370
-3
390
13
347
21
  0
LAYER
  5
28
330
1
100
AcDbSymbolTableRecord
100
AcDbLayerTableRecord
  2
Defpoints
 70
0
 62
7
  6
Continuous
290
0
370
-3
390
13
347
21
  0
ENDTAB
  0
TABLE
  2
STYLE
  5
5
330
0
100
AcDbSymbolTable
 70
1
  0
STYLE
  5
29
330
5
100
AcDbSymbolTableRecord
100
AcDbTextStyleTableRecord
  2
Standard
 70
0
 40
0.0
 41
1.0
 50
0.0
 71
0
 42
2.5
  3
txt
  4

  0
ENDTAB
  0
TABLE
  2
VIEW
  5
7
330
0
100
AcDbSymbolTable
 70
0
  0
ENDTAB
  0
TABLE
  2
UCS
  5
6
330
0
100
AcDbSymbolTable
 70
0
  0
ENDTAB
  0
TABLE
  2
APPID
  5
3
330
0
100
AcDbSymbolTable
 70
3
  0
APPID
  5
2A
330
3
100
AcDbSymbolTableRecord
100
AcDbRegAppTableRecord
  2
ACAD
 70
0
  0
APPID
  5
15D
330
3
100
AcDbSymbolTableRecord
100
AcDbRegAppTableRecord
  2
HATCHBACKGROUNDCOLOR
 70
0
  0
APPID
  5
15E
330
3
100
AcDbSymbolTableRecord
100
AcDbRegAppTableRecord
  2
EZDXF
 70
0
  0
ENDTAB
  0
TABLE
  2
DIMSTYLE
  5
4
330
0
100
AcDbSymbolTable
 70
1
100
AcDbDimStyleTable
  0
DIMSTYLE
105
2B
330
4
100
AcDbSymbolTableRecord
100
AcDbDimStyleTableRecord
  2
Standard
 70
0
 40
1.0
 41
2.5
 42
0.625
 43
3.75
 44
1.25
 45
0.0
 46
0.0
 47
0.0
 48
0.0
 49
2.5
140
2.5
141
2.5
142
0.0
143
0.03937007874
144
1.0
145
0.0
146
1.0
147
0.625
148
0.0
 69
0
 70
0
 71
0
 72
0
 73
0
 74
0
 75
0
 76
0
 77
1
 78
8
 79
3
170
0
171
3
172
1
173
0
174
0
175
0
176
0
177
0
178
0
179
2
271
2
272
2
273
2
274
3
275
0
276
0
277
2
278
44
279
0
280
0
281
0
282
0
283
0
284
8
285
0
286
0
288
0
289
3
290
0
371
-2
372
-2
  0
ENDTAB
  0
TABLE
  2
BLOCK_RECORD
  5
9
330
0
100
AcDbSymbolTable
 70
2
  0
BLOCK_RECORD
  5
17
330
9
100
AcDbSymbolTableRecord
100
AcDbBlockTableRecord
  2
*Model_Space
340
1A
 70
0
280
1
281
0
  0
BLOCK_RECORD
  5
1B
330
9
100
AcDbSymbolTableRecord
100
AcDbBlockTableRecord
  2
*Paper_Space
340
1E
 70
0
280
1
281
0
  0
ENDTAB
  0
ENDSEC
  0
SECTION
  2
BLOCKS
  0
BLOCK
  5
18
330
17
100
AcDbEntity
  8
0
100
AcDbBlockBegin
  2
*Model_Space
 70
0
 10
0.0
 20
0.0
 30
0.0
  3
*Model_Space
  1

  0
ENDBLK
  5
19
330
17
100
AcDbEntity
  8
0
100
AcDbBlockEnd
  0
BLOCK
  5
1C
330
1B
100
AcDbEntity
  8
0
100
AcDbBlockBegin
  2
*Paper_Space
 70
0
 10
0.0
 20
0.0
 30
0.0
  3
*Paper_Space
  1

  0
ENDBLK
  5
1D
330
1B
100
AcDbEntity
  8
0
100
AcDbBlockEnd
  0
ENDSEC
  0
SECTION
  2
ENTITIES
  0
LWPOLYLINE
  5
2F
330
17
100
AcDbEntity
  8
0
 62
7
100
AcDbPolyline
 90
6
 70
0
 10
328.03997802734375
 20
508.1199951171875
 10
323.47998046875
 20
519.4000244140625
 10
328.03997802734375
 20
508.1199951171875
 10
323.47998046875
 20
519.4000244140625
 10
328.03997802734375
 20
519.4000244140625
 10
323.47998046875
 20
508.1199951171875
  0
LWPOLYLINE
  5
30
330
17
100
AcDbEntity
  8
0
 62
7
100
AcDbPolyline
 90
6
 70
0
 10
328.03997802734375
 20
519.4000244140625
 10
323.47998046875
 20
519.760009765625
 10
328.03997802734375
 20
519.4000244140625
 10
323.47998046875
 20
519.760009765625
 10
328.03997802734375
 20
519.760009765625
 10
325.03997802734375
 20
519.4000244140625
  0
LWPOLYLINE
  5
31
330
17
100
AcDbEntity
  8
0
 62
7
100
AcDbPolyline
 90
6
 70
0
 10
325.03997802734375
 20
520.239990234375
 10
326.47998046875
 20
520.239990234375
 10
327.91998291015625
 20
519.760009765625
 10
326.47998046875
 20
520.239990234375
 10
327.91998291015625
 20
520.47998046875
 10
327.67999267578125
 20
520.239990234375
  0
LWPOLYLINE
  5
32
330
17
100
AcDbEntity
  8
0
 62
7
100
AcDbPolyline
 90
3
 70
0
 10
325.03997802734375
 20
519.760009765625
 10
328.03997802734375
 20
520.239990234375
 10
327.91998291015625
 20
519.760009765625
  0
LWPOLYLINE
  5
33
330
17
100
AcDbEntity
  8
0
 62
7
100
AcDbPolyline
 90
6
 70
0
 10
524.9599609375
 20
441.2799987792969
 10
529.6400146484375
 20
444.2799987792969
 10
524.9599609375
 20
441.2799987792969
 10
529.6400146484375
 20
444.2799987792969
 10
524.9599609375
 20
444.2799987792969
 10
529.6400146484375
 20
441.2799987792969
  0
LWPOLYLINE
  5
34
330
17
100
AcDbEntity
  8
0
 62
7
100
AcDbPolyline
 90
6
 70
0
 10
525.9199829101562
 20
437.32000732421875
 10
528.6799926757812
 20
440.32000732421875
 10
525.9199829101562
 20
437.32000732421875
 10
528.6799926757812
 20
440.32000732421875
 10
525.9199829101562
 20
440.32000732421875
 10
528.6799926757812
 20
437.32000732421875
  0
LWPOLYLINE
  5
35
330
17
100
AcDbEntity
  8
0
 62
7
100
AcDbPolyline
 90
6
 70
0
 10
347.3599853515625
 20
466.239990234375
 10
352.03997802734375
 20
469.239990234375
 10
347.3599853515625
 20
466.239990234375
 10
352.03997802734375
 20
469.239990234375
 10
347.3599853515625
 20
469.239990234375
 10
352.03997802734375
 20
466.239990234375
  0
LWPOLYLINE
  5
36
330
17
100
AcDbEntity
  8
0
 62
7
100
AcDbPolyline
 90
6
 70
0
 10
348.44000244140625
 20
462.1600036621094
 10
350.9599914550781
 20
465.2799987792969
 10
348.44000244140625
 20
462.1600036621094
 10
350.9599914550781
 20
465.2799987792969
 10
348.44000244140625
 20
465.2799987792969
 10
350.9599914550781
 20
462.1600036621094
  0
LWPOLYLINE
  5
37
330
17
100
AcDbEntity
  8
0
 62
7
100
AcDbPolyline
 90
6
 70
0
 10
378.0799865722656
 20
466.239990234375
 10
382.7599792480469
 20
469.239990234375
 10
378.0799865722656
 20
466.239990234375
 10
382.7599792480469
 20
469.239990234375
 10
378.0799865722656
 20
469.239990234375
 10
382.7599792480469
 20
466.239990234375
  0
LWPOLYLINE
  5
38
330
17
100
AcDbEntity
  8
0
 62
7
100
AcDbPolyline
 90
6
 70
0
 10
379.5199890136719
 20
462.1600036621094
 10
381.1999816894531
 20
465.2799987792969
 10
379.5199890136719
 20
462.1600036621094
 10
381.1999816894531
 20
465.2799987792969
 10
379.5199890136719
 20
465.2799987792969
 10
381.1999816894531
 20
462.1600036621094
  0
LWPOLYLINE
  5
39
330
17
100
AcDbEntity
  8
0
 62
7
100
AcDbPolyline
 90
6
 70
0
 10
117.31999969482422
 20
492.8800048828125
 10
122.1199951171875
 20
496.0
 10
117.31999969482422
 20
492.8800048828125
 10
122.1199951171875
 20
496.0
 10
117.31999969482422
 20
496.0
 10
122.1199951171875
 20
492.8800048828125
  0
LWPOLYLINE
  5
3A
330
17
100
AcDbEntity
  8
0
 62
7
100
AcDbPolyline
 90
6
 70
0
 10
118.27999877929688
 20
488.9200134277344
 10
121.15999603271484
 20
491.9200134277344
 10
118.27999877929688
 20
488.9200134277344
 10
121.15999603271484
 20
491.9200134277344
 10
118.27999877929688
 20
491.9200134277344
 10
121.15999603271484
 20
488.9200134277344
  0
LWPOLYLINE
  5
3B
330
17
100
AcDbEntity
  8
0
 62
7
100
AcDbPolyline
 90
6
 70
0
 10
117.31999969482422
 20
508.4800109863281
 10
122.1199951171875
 20
511.4800109863281
 10
117.31999969482422
 20
508.4800109863281
 10
122.1199951171875
 20
511.4800109863281
 10
117.31999969482422
 20
511.4800109863281
 10
122.1199951171875
 20
508.4800109863281
  0
LWPOLYLINE
  5
3C
330
17
100
AcDbEntity
  8
0
 62
7
100
AcDbPolyline
 90
6
 70
0
 10
118.39999389648438
 20
504.5199890136719
 10
121.04000091552734
 20
507.5199890136719
 10
118.39999389648438
 20
504.5199890136719
 10
121.04000091552734
 20
507.5199890136719
 10
118.39999389648438
 20
507.5199890136719
 10
121.04000091552734
 20
504.5199890136719
  0
LWPOLYLINE
  5
3D
330
17
100
AcDbEntity
  8
0
 62
7
100
AcDbPolyline
 90
6
 70
0
 10
96.68000030517578
 20
530.9199829101562
 10
101.47999572753906
 20
533.9199829101562
 10
96.68000030517578
 20
530.9199829101562
 10
101.47999572753906
 20
533.9199829101562
 10
96.68000030517578
 20
533.9199829101562
 10
101.47999572753906
 20
530.9199829101562
  0
LWPOLYLINE
  5
3E
330
17
100
AcDbEntity
  8
0
 62
7
100
AcDbPolyline
 90
6
 70
0
 10
97.63999938964844
 20
526.9600219726562
 10
100.5199966430664
 20
529.9600219726562
 10
97.63999938964844
 20
526.9600219726562
 10
100.5199966430664
 20
529.9600219726562
 10
97.63999938964844
 20
529.9600219726562
 10
100.5199966430664
 20
526.9600219726562
  0
LWPOLYLINE
  5
3F
330
17
100
AcDbEntity
  8
0
 62
7
100
AcDbPolyline
 90
6
 70
0
 10
171.9199981689453
 20
422.32000732421875
 10
176.59999084472656
 20
425.32000732421875
 10
171.9199981689453
 20
422.32000732421875
 10
176.59999084472656
 20
425.32000732421875
 10
171.9199981689453
 20
425.32000732421875
 10
176.59999084472656
 20
422.32000732421875
  0
LWPOLYLINE
  5
40
330
17
100
AcDbEntity
  8
0
 62
7
100
AcDbPolyline
 90
6
 70
0
 10
172.75999450683594
 20
418.239990234375
 10
175.75999450683594
 20
421.3599853515625
 10
172.75999450683594
 20
418.239990234375
 10
175.75999450683594
 20
421.3599853515625
 10
172.75999450683594
 20
421.3599853515625
 10
175.75999450683594
 20
418.239990234375
  0
LWPOLYLINE
  5
41
330
17
100
AcDbEntity
  8
0
 62
7
100
AcDbPolyline
 90
6
 70
0
 10
630.5599975585938
 20
535.3599853515625
 10
635.239990234375
 20
538.3599853515625
 10
630.5599975585938
 20
535.3599853515625
 10
635.239990234375
 20
538.3599853515625
 10
630.5599975585938
 20
538.3599853515625
 10
635.239990234375
 20
535.3599853515625
  0
LWPOLYLINE
  5
42
330
17
100
AcDbEntity
  8
0
 62
7
100
AcDbPolyline
 90
6
 70
0
 10
631.6400146484375
 20
531.4000244140625
 10
634.1599731445312
 20
534.4000244140625
 10
631.6400146484375
 20
531.4000244140625
 10
634.1599731445312
 20
534.4000244140625
 10
631.6400146484375
 20
534.4000244140625
 10
634.1599731445312
 20
531.4000244140625
  0
LWPOLYLINE
  5
43
330
17
100
AcDbEntity
  8
0
 62
7
100
AcDbPolyline
 90
6
 70
0
 10
642.7999877929688
 20
536.5599975585938
 10
647.47998046875
 20
539.5599975585938
 10
642.7999877929688
 20
536.5599975585938
 10
647.47998046875
 20
539.5599975585938
 10
642.7999877929688
 20
539.5599975585938
 10
647.47998046875
 20
536.5599975585938
  0
LWPOLYLINE
  5
44
330
17
100
AcDbEntity
  8
0
 62
7
100
AcDbPolyline
 90
6
 70
0
 10
643.760009765625
 20
532.5999755859375
 10
646.6400146484375
 20
535.5999755859375
 10
643.760009765625
 20
532.5999755859375
 10
646.6400146484375
 20
535.5999755859375
 10
643.760009765625
 20
535.5999755859375
 10
646.6400146484375
 20
532.5999755859375
  0
LWPOLYLINE
  5
45
330
17
100
AcDbEntity
  8
0
 62
7
100
AcDbPolyline
 90
6
 70
0
 10
592.5199584960938
 20
505.239990234375
 10
597.2000122070312
 20
508.239990234375
 10
592.5199584960938
 20
505.239990234375
 10
597.2000122070312
 20
508.239990234375
 10
592.5199584960938
 20
508.239990234375
 10
597.2000122070312
 20
505.239990234375
  0
LWPOLYLINE
  5
46
330
17
100
AcDbEntity
  8
0
 62
7
100
AcDbPolyline
 90
6
 70
0
 10
593.5999755859375
 20
501.2799987792969
 10
596.239990234375
 20
504.2799987792969
 10
593.5999755859375
 20
501.2799987792969
 10
596.239990234375
 20
504.2799987792969
 10
593.5999755859375
 20
504.2799987792969
 10
596.239990234375
 20
501.2799987792969
  0
LWPOLYLINE
  5
47
330
17
100
AcDbEntity
  8
0
 62
7
100
AcDbPolyline
 90
6
 70
0
 10
267.44000244140625
 20
421.8399963378906
 10
272.1199951171875
 20
424.8399963378906
 10
267.44000244140625
 20
421.8399963378906
 10
272.1199951171875
 20
424.8399963378906
 10
267.44000244140625
 20
424.8399963378906
 10
272.1199951171875
 20
421.8399963378906
  0
LWPOLYLINE
  5
48
330
17
100
AcDbEntity
  8
0
 62
7
100
AcDbPolyline
 90
6
 70
0
 10
268.2799987792969
 20
417.760009765625
 10
271.2799987792969
 20
420.8800048828125
 10
268.2799987792969
 20
417.760009765625
 10
271.2799987792969
 20
420.8800048828125
 10
268.2799987792969
 20
420.8800048828125
 10
271.2799987792969
 20
417.760009765625
  0
LWPOLYLINE
  5
49
330
17
100
AcDbEntity
  8
0
 62
7
100
AcDbPolyline
 90
6
 70
0
 10
417.55999755859375
 20
389.91998291015625
 10
422.239990234375
 20
392.91998291015625
 10
417.55999755859375
 20
389.91998291015625
 10
422.239990234375
 20
392.91998291015625
 10
417.55999755859375
 20
392.91998291015625
 10
422.239990234375
 20
389.91998291015625
  0
LWPOLYLINE
  5
4A
330
17
100
AcDbEntity
  8
0
 62
7
100
AcDbPolyline
 90
6
 70
0
 10
418.3999938964844
 20
385.8399963378906
 10
421.3999938964844
 20
388.96002197265625
 10
418.3999938964844
 20
385.8399963378906
 10
421.3999938964844
 20
388.96002197265625
 10
418.3999938964844
 20
388.96002197265625
 10
421.3999938964844
 20
385.8399963378906
  0
LWPOLYLINE
  5
4B
330
17
100
AcDbEntity
  8
0
 62
7
100
AcDbPolyline
 90
6
 70
0
 10
396.0799865722656
 20
388.4800109863281
 10
400.7599792480469
 20
391.4800109863281
 10
396.0799865722656
 20
388.4800109863281
 10
400.7599792480469
 20
391.4800109863281
 10
396.0799865722656
 20
391.4800109863281
 10
400.7599792480469
 20
388.4800109863281
  0
LWPOLYLINE
  5
4C
330
17
100
AcDbEntity
  8
0
 62
7
100
AcDbPolyline
 90
6
 70
0
 10
396.67999267578125
 20
384.52001953125
 10
400.1600036621094
 20
387.52001953125
 10
396.67999267578125
 20
384.52001953125
 10
400.1600036621094
 20
387.52001953125
 10
396.67999267578125
 20
387.52001953125
 10
400.1600036621094
 20
384.52001953125
  0
LWPOLYLINE
  5
4D
330
17
100
AcDbEntity
  8
0
 62
7
100
AcDbPolyline
 90
6
 70
0
 10
403.6399841308594
 20
388.0
 10
403.1600036621094
 20
389.44000244140625
 10
403.1600036621094
 20
390.0400085449219
 10
403.1600036621094
 20
389.44000244140625
 10
403.1600036621094
 20
390.0400085449219
 10
402.67999267578125
 20
388.0
  0
LWPOLYLINE
  5
4E
330
17
100
AcDbEntity
  8
0
 62
7
100
AcDbPolyline
 90
6
 70
0
 10
417.55999755859375
 20
356.67999267578125
 10
422.239990234375
 20
359.79998779296875
 10
417.55999755859375
 20
356.67999267578125
 10
422.239990234375
 20
359.79998779296875
 10
417.55999755859375
 20
359.79998779296875
 10
422.239990234375
 20
356.67999267578125
  0
LWPOLYLINE
  5
4F
330
17
100
AcDbEntity
  8
0
 62
7
100
AcDbPolyline
 90
6
 70
0
 10
417.79998779296875
 20
352.7200012207031
 10
422.1199951171875
 20
355.84002685546875
 10
417.79998779296875
 20
352.7200012207031
 10
422.1199951171875
 20
355.84002685546875
 10
417.79998779296875
 20
355.84002685546875
 10
422.1199951171875
 20
352.7200012207031
  0
LWPOLYLINE
  5
50
330
17
100
AcDbEntity
  8
0
 62
7
100
AcDbPolyline
 90
6
 70
0
 10
436.8800048828125
 20
375.0400085449219
 10
441.67999267578125
 20
378.0400085449219
 10
436.8800048828125
 20
375.0400085449219
 10
441.67999267578125
 20
378.0400085449219
 10
436.8800048828125
 20
378.0400085449219
 10
441.67999267578125
 20
375.0400085449219
  0
LWPOLYLINE
  5
51
330
17
100
AcDbEntity
  8
0
 62
7
100
AcDbPolyline
 90
6
 70
0
 10
437.5999755859375
 20
370.96002197265625
 10
441.0799865722656
 20
374.08001708984375
 10
437.5999755859375
 20
370.96002197265625
 10
441.0799865722656
 20
374.08001708984375
 10
437.5999755859375
 20
374.08001708984375
 10
441.0799865722656
 20
370.96002197265625
  0
LWPOLYLINE
  5
52
330
17
100
AcDbEntity
  8
0
 62
7
100
AcDbPolyline
 90
6
 70
0
 10
417.55999755859375
 20
375.0400085449219
 10
422.239990234375
 20
378.0400085449219
 10
417.55999755859375
 20
375.0400085449219
 10
422.239990234375
 20
378.0400085449219
 10
417.55999755859375
 20
378.0400085449219
 10
422.239990234375
 20
375.0400085449219
  0
LWPOLYLINE
  5
53
330
17
100
AcDbEntity
  8
0
 62
7
100
AcDbPolyline
 90
6
 70
0
 10
418.3999938964844
 20
370.96002197265625
 10
421.3999938964844
 20
374.08001708984375
 10
418.3999938964844
 20
370.96002197265625
 10
421.3999938964844
 20
374.08001708984375
 10
418.3999938964844
 20
374.08001708984375
 10
421.3999938964844
 20
370.96002197265625
  0
LWPOLYLINE
  5
54
330
17
100
AcDbEntity
  8
0
 62
7
100
AcDbPolyline
 90
3
 70
0
 10
350.239990234375
 20
395.91998291015625
 10
350.239990234375
 20
394.4800109863281
 10
353.1199951171875
 20
393.0400085449219
  0
LWPOLYLINE
  5
55
330
17
100
AcDbEntity
  8
0
 62
7
100
AcDbPolyline
 90
6
 70
0
 10
484.7599792480469
 20
354.2799987792969
 10
489.44000244140625
 20
357.2799987792969
 10
484.7599792480469
 20
354.2799987792969
 10
489.44000244140625
 20
357.2799987792969
 10
484.7599792480469
 20
357.2799987792969
 10
489.44000244140625
 20
354.2799987792969
  0
LWPOLYLINE
  5
56
330
17
100
AcDbEntity
  8
0
 62
7
100
AcDbPolyline
 90
6
 70
0
 10
485.0
 20
350.20001220703125
 10
489.1999816894531
 20
353.32000732421875
 10
485.0
 20
350.20001220703125
 10
489.1999816894531
 20
353.32000732421875
 10
485.0
 20
353.32000732421875
 10
489.1999816894531
 20
350.20001220703125
  0
LWPOLYLINE
  5
57
330
17
100
AcDbEntity
  8
0
 62
7
100
AcDbPolyline
 90
6
 70
0
 10
492.3199768066406
 20
353.67999267578125
 10
491.8399963378906
 20
355.1199951171875
 10
491.8399963378906
 20
355.7200012207031
 10
491.8399963378906
 20
355.1199951171875
 10
491.8399963378906
 20
355.7200012207031
 10
491.3599853515625
 20
353.67999267578125
  0
LWPOLYLINE
  5
58
330
17
100
AcDbEntity
  8
0
 62
7
100
AcDbPolyline
 90
6
 70
0
 10
335.7200012207031
 20
515.2000122070312
 10
340.3999938964844
 20
518.2000122070312
 10
335.7200012207031
 20
515.2000122070312
 10
340.3999938964844
 20
518.2000122070312
 10
335.7200012207031
 20
518.2000122070312
 10
340.3999938964844
 20
515.2000122070312
  0
LWPOLYLINE
  5
59
330
17
100
AcDbEntity
  8
0
 62
7
100
AcDbPolyline
 90
6
 70
0
 10
336.67999267578125
 20
511.239990234375
 10
339.55999755859375
 20
514.239990234375
 10
336.67999267578125
 20
511.239990234375
 10
339.55999755859375
 20
514.239990234375
 10
336.67999267578125
 20
514.239990234375
 10
339.55999755859375
 20
511.239990234375
  0
LWPOLYLINE
  5
5A
330
17
100
AcDbEntity
  8
0
 62
7
100
AcDbPolyline
 90
6
 70
0
 10
246.3199920654297
 20
383.91998291015625
 10
251.0
 20
386.91998291015625
 10
246.3199920654297
 20
383.91998291015625
 10
251.0
 20
386.91998291015625
 10
246.3199920654297
 20
386.91998291015625
 10
251.0
 20
383.91998291015625
  0
LWPOLYLINE
  5
5B
330
17
100
AcDbEntity
  8
0
 62
7
100
AcDbPolyline
 90
6
 70
0
 10
247.1599884033203
 20
379.96002197265625
 10
250.1599884033203
 20
382.96002197265625
 10
247.1599884033203
 20
379.96002197265625
 10
250.1599884033203
 20
382.96002197265625
 10
247.1599884033203
 20
382.96002197265625
 10
250.1599884033203
 20
379.96002197265625
  0
LWPOLYLINE
  5
5C
330
17
100
AcDbEntity
  8
0
 62
7
100
AcDbPolyline
 90
6
 70
0
 10
96.68000030517578
 20
516.760009765625
 10
101.47999572753906
 20
519.760009765625
 10
96.68000030517578
 20
516.760009765625
 10
101.47999572753906
 20
519.760009765625
 10
96.68000030517578
 20
519.760009765625
 10
101.47999572753906
 20
516.760009765625
  0
LWPOLYLINE
  5
5D
330
17
100
AcDbEntity
  8
0
 62
7
100
AcDbPolyline
 90
6
 70
0
 10
97.75999450683594
 20
512.7999877929688
 10
100.4000015258789
 20
515.7999877929688
 10
97.75999450683594
 20
512.7999877929688
 10
100.4000015258789
 20
515.7999877929688
 10
97.75999450683594
 20
515.7999877929688
 10
100.4000015258789
 20
512.7999877929688
  0
LWPOLYLINE
  5
5E
330
17
100
AcDbEntity
  8
0
 62
7
100
AcDbPolyline
 90
3
 70
0
 10
498.91998291015625
 20
406.3599853515625
 10
497.5999755859375
 20
409.239990234375
 10
496.1600036621094
 20
409.239990234375
  0
LWPOLYLINE
  5
5F
330
17
100
AcDbEntity
  8
0
 62
7
100
AcDbPolyline
 90
3
 70
0
 10
477.91998291015625
 20
409.1199951171875
 10
475.03997802734375
 20
406.3599853515625
 10
476.47998046875
 20
409.1199951171875
  0
LWPOLYLINE
  5
60
330
17
100
AcDbEntity
  8
0
 62
7
100
AcDbPolyline
 90
3
 70
0
 10
487.03997802734375
 20
393.6400146484375
 10
488.47998046875
 20
393.6400146484375
 10
485.5999755859375
 20
396.4000244140625
  0
LWPOLYLINE
  5
61
330
17
100
AcDbEntity
  8
0
 62
7
100
AcDbPolyline
 90
3
 70
0
 10
487.03997802734375
 20
399.2799987792969
 10
488.47998046875
 20
399.2799987792969
 10
485.5999755859375
 20
396.4000244140625
  0
LWPOLYLINE
  5
62
330
17
100
AcDbEntity
  8
0
 62
7
100
AcDbPolyline
 90
3
 70
0
 10
486.55999755859375
 20
363.1600036621094
 10
486.91998291015625
 20
363.2799987792969
 10
486.55999755859375
 20
363.1600036621094
  0
LWPOLYLINE
  5
63
330
17
100
AcDbEntity
  8
0
 62
7
100
AcDbPolyline
 90
3
 70
0
 10
487.2799987792969
 20
363.1600036621094
 10
487.6399841308594
 20
363.2799987792969
 10
487.5199890136719
 20
363.1600036621094
  0
LWPOLYLINE
  5
64
330
17
100
AcDbEntity
  8
0
 62
7
100
AcDbPolyline
 90
6
 70
0
 10
488.47998046875
 20
361.3599853515625
 10
485.5999755859375
 20
363.1600036621094
 10
487.6399841308594
 20
361.3599853515625
 10
485.5999755859375
 20
363.1600036621094
 10
487.6399841308594
 20
363.1600036621094
 10
486.55999755859375
 20
361.3599853515625
  0
LWPOLYLINE
  5
65
330
17
100
AcDbEntity
  8
0
 62
7
100
AcDbPolyline
 90
6
 70
0
 10
487.2799987792969
 20
363.1600036621094
 10
486.91998291015625
 20
363.2799987792969
 10
487.5199890136719
 20
363.1600036621094
 10
486.91998291015625
 20
363.2799987792969
 10
487.5199890136719
 20
363.2799987792969
 10
486.55999755859375
 20
363.1600036621094
  0
LWPOLYLINE
  5
66
330
17
100
AcDbEntity
  8
0
 62
7
100
AcDbPolyline
 90
3
 70
0
 10
486.79998779296875
 20
363.52001953125
 10
486.91998291015625
 20
363.6400146484375
 10
486.79998779296875
 20
363.52001953125
  0
LWPOLYLINE
  5
67
330
17
100
AcDbEntity
  8
0
 62
7
100
AcDbPolyline
 90
3
 70
0
 10
487.1600036621094
 20
363.52001953125
 10
487.3999938964844
 20
363.6400146484375
 10
487.3999938964844
 20
363.52001953125
  0
LWPOLYLINE
  5
68
330
17
100
AcDbEntity
  8
0
 62
7
100
AcDbPolyline
 90
6
 70
0
 10
487.5199890136719
 20
363.2799987792969
 10
486.55999755859375
 20
363.52001953125
 10
487.3999938964844
 20
363.2799987792969
 10
486.55999755859375
 20
363.52001953125
 10
487.3999938964844
 20
363.52001953125
 10
486.79998779296875
 20
363.2799987792969
  0
LWPOLYLINE
  5
69
330
17
100
AcDbEntity
  8
0
 62
7
100
AcDbPolyline
 90
2
 70
0
 10
486.79998779296875
 20
364.96002197265625
 10
486.91998291015625
 20
364.96002197265625
  0
LWPOLYLINE
  5
6A
330
17
100
AcDbEntity
  8
0
 62
7
100
AcDbPolyline
 90
2
 70
0
 10
487.3999938964844
 20
364.96002197265625
 10
487.1600036621094
 20
364.96002197265625
  0
LWPOLYLINE
  5
6B
330
17
100
AcDbEntity
  8
0
 62
7
100
AcDbPolyline
 90
6
 70
0
 10
487.3999938964844
 20
364.96002197265625
 10
486.79998779296875
 20
365.20001220703125
 10
487.5199890136719
 20
364.96002197265625
 10
486.79998779296875
 20
365.20001220703125
 10
487.5199890136719
 20
365.20001220703125
 10
486.55999755859375
 20
364.96002197265625
  0
LWPOLYLINE
  5
6C
330
17
100
AcDbEntity
  8
0
 62
7
100
AcDbPolyline
 90
6
 70
0
 10
487.5199890136719
 20
365.20001220703125
 10
486.55999755859375
 20
365.32000732421875
 10
487.2799987792969
 20
365.20001220703125
 10
486.55999755859375
 20
365.32000732421875
 10
487.2799987792969
 20
365.32000732421875
 10
486.91998291015625
 20
365.20001220703125
  0
LWPOLYLINE
  5
6D
330
17
100
AcDbEntity
  8
0
 62
7
100
AcDbPolyline
 90
3
 70
0
 10
486.55999755859375
 20
365.32000732421875
 10
486.91998291015625
 20
365.32000732421875
 10
486.55999755859375
 20
365.20001220703125
  0
LWPOLYLINE
  5
6E
330
17
100
AcDbEntity
  8
0
 62
7
100
AcDbPolyline
 90
3
 70
0
 10
487.5199890136719
 20
365.32000732421875
 10
487.6399841308594
 20
365.32000732421875
 10
487.2799987792969
 20
365.20001220703125
  0
LWPOLYLINE
  5
6F
330
17
100
AcDbEntity
  8
0
 62
7
100
AcDbPolyline
 90
6
 70
0
 10
487.6399841308594
 20
365.32000732421875
 10
486.55999755859375
 20
367.1199951171875
 10
488.47998046875
 20
365.32000732421875
 10
486.55999755859375
 20
367.1199951171875
 10
488.47998046875
 20
367.1199951171875
 10
485.5999755859375
 20
365.32000732421875
  0
LWPOLYLINE
  5
70
330
17
100
AcDbEntity
  8
0
 62
7
100
AcDbPolyline
 90
3
 70
0
 10
487.03997802734375
 20
444.2799987792969
 10
488.47998046875
 20
444.2799987792969
 10
485.5999755859375
 20
447.1600036621094
  0
LWPOLYLINE
  5
71
330
17
100
AcDbEntity
  8
0
 62
7
100
AcDbPolyline
 90
3
 70
0
 10
487.03997802734375
 20
450.0400085449219
 10
488.47998046875
 20
450.0400085449219
 10
485.5999755859375
 20
447.1600036621094
  0
LWPOLYLINE
  5
72
330
17
100
AcDbEntity
  8
0
 62
7
100
AcDbPolyline
 90
3
 70
0
 10
486.55999755859375
 20
413.91998291015625
 10
486.91998291015625
 20
414.0400085449219
 10
486.55999755859375
 20
413.91998291015625
  0
LWPOLYLINE
  5
73
330
17
100
AcDbEntity
  8
0
 62
7
100
AcDbPolyline
 90
3
 70
0
 10
487.2799987792969
 20
413.91998291015625
 10
487.5199890136719
 20
414.0400085449219
 10
487.5199890136719
 20
413.91998291015625
  0
LWPOLYLINE
  5
74
330
17
100
AcDbEntity
  8
0
 62
7
100
AcDbPolyline
 90
6
 70
0
 10
488.47998046875
 20
412.1199951171875
 10
485.5999755859375
 20
413.91998291015625
 10
487.5199890136719
 20
412.1199951171875
 10
485.5999755859375
 20
413.91998291015625
 10
487.5199890136719
 20
413.91998291015625
 10
486.55999755859375
 20
412.1199951171875
  0
LWPOLYLINE
  5
75
330
17
100
AcDbEntity
  8
0
 62
7
100
AcDbPolyline
 90
6
 70
0
 10
487.2799987792969
 20
413.91998291015625
 10
486.91998291015625
 20
414.0400085449219
 10
487.5199890136719
 20
413.91998291015625
 10
486.91998291015625
 20
414.0400085449219
 10
487.5199890136719
 20
414.0400085449219
 10
486.55999755859375
 20
413.91998291015625
  0
LWPOLYLINE
  5
76
330
17
100
AcDbEntity
  8
0
 62
7
100
AcDbPolyline
 90
3
 70
0
 10
486.67999267578125
 20
414.2799987792969
 10
486.91998291015625
 20
414.2799987792969
 10
486.79998779296875
 20
414.2799987792969
  0
LWPOLYLINE
  5
77
330
17
100
AcDbEntity
  8
0
 62
7
100
AcDbPolyline
 90
2
 70
0
 10
487.1600036621094
 20
414.2799987792969
 10
487.3999938964844
 20
414.2799987792969
  0
LWPOLYLINE
  5
78
330
17
100
AcDbEntity
  8
0
 62
7
100
AcDbPolyline
 90
6
 70
0
 10
487.5199890136719
 20
414.0400085449219
 10
486.55999755859375
 20
414.2799987792969
 10
487.3999938964844
 20
414.0400085449219
 10
486.55999755859375
 20
414.2799987792969
 10
487.3999938964844
 20
414.2799987792969
 10
486.67999267578125
 20
414.0400085449219
  0
LWPOLYLINE
  5
79
330
17
100
AcDbEntity
  8
0
 62
7
100
AcDbPolyline
 90
3
 70
0
 10
486.79998779296875
 20
415.7200012207031
 10
486.91998291015625
 20
415.7200012207031
 10
486.67999267578125
 20
415.6000061035156
  0
LWPOLYLINE
  5
7A
330
17
100
AcDbEntity
  8
0
 62
7
100
AcDbPolyline
 90
3
 70
0
 10
487.3999938964844
 20
415.7200012207031
 10
487.3999938964844
 20
415.7200012207031
 10
487.1600036621094
 20
415.6000061035156
  0
LWPOLYLINE
  5
7B
330
17
100
AcDbEntity
  8
0
 62
7
100
AcDbPolyline
 90
6
 70
0
 10
487.3999938964844
 20
415.7200012207031
 10
486.67999267578125
 20
415.8399963378906
 10
487.5199890136719
 20
415.7200012207031
 10
486.67999267578125
 20
415.8399963378906
 10
487.5199890136719
 20
415.8399963378906
 10
486.55999755859375
 20
415.7200012207031
  0
LWPOLYLINE
  5
7C
330
17
100
AcDbEntity
  8
0
 62
7
100
AcDbPolyline
 90
6
 70
0
 10
487.5199890136719
 20
415.8399963378906
 10
486.55999755859375
 20
415.96002197265625
 10
487.2799987792969
 20
415.8399963378906
 10
486.55999755859375
 20
415.96002197265625
 10
487.2799987792969
 20
415.96002197265625
 10
486.91998291015625
 20
415.8399963378906
  0
LWPOLYLINE
  5
7D
330
17
100
AcDbEntity
  8
0
 62
7
100
AcDbPolyline
 90
3
 70
0
 10
486.55999755859375
 20
415.96002197265625
 10
486.91998291015625
 20
415.96002197265625
 10
486.55999755859375
 20
415.8399963378906
  0
LWPOLYLINE
  5
7E
330
17
100
AcDbEntity
  8
0
 62
7
100
AcDbPolyline
 90
3
 70
0
 10
487.5199890136719
 20
415.96002197265625
 10
487.5199890136719
 20
415.96002197265625
 10
487.2799987792969
 20
415.8399963378906
  0
LWPOLYLINE
  5
7F
330
17
100
AcDbEntity
  8
0
 62
7
100
AcDbPolyline
 90
6
 70
0
 10
487.5199890136719
 20
415.96002197265625
 10
486.55999755859375
 20
417.760009765625
 10
488.47998046875
 20
415.96002197265625
 10
486.55999755859375
 20
417.760009765625
 10
488.47998046875
 20
417.760009765625
 10
485.5999755859375
 20
415.96002197265625
  0
LWPOLYLINE
  5
80
330
17
100
AcDbEntity
  8
0
 62
7
100
AcDbPolyline
 90
3
 70
0
 10
618.5599975585938
 20
535.1199951171875
 10
615.6799926757812
 20
532.239990234375
 10
615.6799926757812
 20
533.6799926757812
  0
LWPOLYLINE
  5
81
330
17
100
AcDbEntity
  8
0
 62
7
100
AcDbPolyline
 90
3
 70
0
 10
618.5599975585938
 20
535.1199951171875
 10
621.4400024414062
 20
532.239990234375
 10
621.4400024414062
 20
533.6799926757812
  0
LWPOLYLINE
  5
82
330
17
100
AcDbEntity
  8
0
 62
7
100
AcDbPolyline
 90
3
 70
0
 10
350.8399963378906
 20
356.44000244140625
 10
352.2799987792969
 20
356.44000244140625
 10
349.3999938964844
 20
359.32000732421875
  0
LWPOLYLINE
  5
83
330
17
100
AcDbEntity
  8
0
 62
7
100
AcDbPolyline
 90
3
 70
0
 10
350.8399963378906
 20
362.20001220703125
 10
352.2799987792969
 20
362.20001220703125
 10
349.3999938964844
 20
359.32000732421875
  0
LWPOLYLINE
  5
84
330
17
100
AcDbEntity
  8
0
 62
7
100
AcDbPolyline
 90
3
 70
0
 10
422.239990234375
 20
427.8399963378906
 10
420.79998779296875
 20
427.8399963378906
 10
423.55999755859375
 20
430.7200012207031
  0
LWPOLYLINE
  5
85
330
17
100
AcDbEntity
  8
0
 62
7
100
AcDbPolyline
 90
3
 70
0
 10
422.239990234375
 20
433.4800109863281
 10
420.79998779296875
 20
433.4800109863281
 10
423.55999755859375
 20
430.7200012207031
  0
LWPOLYLINE
  5
86
330
17
100
AcDbEntity
  8
0
 62
7
100
AcDbPolyline
 90
3
 70
0
 10
467.8399963378906
 20
396.2799987792969
 10
466.3999938964844
 20
396.2799987792969
 10
469.2799987792969
 20
399.1600036621094
  0
LWPOLYLINE
  5
87
330
17
100
AcDbEntity
  8
0
 62
7
100
AcDbPolyline
 90
3
 70
0
 10
467.8399963378906
 20
402.0400085449219
 10
466.3999938964844
 20
402.0400085449219
 10
469.2799987792969
 20
399.1600036621094
  0
LWPOLYLINE
  5
88
330
17
100
AcDbEntity
  8
0
 62
7
100
AcDbPolyline
 90
3
 70
0
 10
271.6399841308594
 20
410.91998291015625
 10
268.760009765625
 20
413.79998779296875
 10
268.760009765625
 20
412.3599853515625
  0
LWPOLYLINE
  5
89
330
17
100
AcDbEntity
  8
0
 62
7
100
AcDbPolyline
 90
3
 70
0
 10
271.6399841308594
 20
410.91998291015625
 10
274.5199890136719
 20
413.79998779296875
 10
274.5199890136719
 20
412.3599853515625
  0
LWPOLYLINE
  5
8A
330
17
100
AcDbEntity
  8
0
 62
7
100
AcDbPolyline
 90
3
 70
0
 10
282.79998779296875
 20
339.8800048828125
 10
284.0
 20
339.8800048828125
 10
281.7200012207031
 20
337.6000061035156
  0
LWPOLYLINE
  5
8B
330
17
100
AcDbEntity
  8
0
 62
7
100
AcDbPolyline
 90
3
 70
0
 10
282.79998779296875
 20
335.32000732421875
 10
281.7200012207031
 20
335.32000732421875
 10
284.0
 20
337.6000061035156
  0
LWPOLYLINE
  5
8C
330
17
100
AcDbEntity
  8
0
 62
7
100
AcDbPolyline
 90
6
 70
0
 10
348.1999816894531
 20
389.08001708984375
 10
350.239990234375
 20
389.08001708984375
 10
348.79998779296875
 20
389.55999755859375
 10
350.239990234375
 20
389.08001708984375
 10
348.79998779296875
 20
388.6000061035156
 10
348.1999816894531
 20
389.08001708984375
  0
LWPOLYLINE
  5
8D
330
17
100
AcDbEntity
  8
0
 62
7
100
AcDbPolyline
 90
6
 70
0
 10
560.8399658203125
 20
391.0
 10
564.9199829101562
 20
394.0
 10
560.8399658203125
 20
391.0
 10
564.9199829101562
 20
394.0
 10
560.8399658203125
 20
394.0
 10
564.9199829101562
 20
391.0
  0
LWPOLYLINE
  5
8E
330
17
100
AcDbEntity
  8
0
 62
7
100
AcDbPolyline
 90
6
 70
0
 10
560.47998046875
 20
394.8399963378906
 10
565.2799682617188
 20
397.96002197265625
 10
560.47998046875
 20
394.8399963378906
 10
565.2799682617188
 20
397.96002197265625
 10
560.47998046875
 20
397.96002197265625
 10
565.2799682617188
 20
394.8399963378906
  0
LWPOLYLINE
  5
8F
330
17
100
AcDbEntity
  8
0
 62
7
100
AcDbPolyline
 90
6
 70
0
 10
235.39999389648438
 20
449.08001708984375
 10
239.47999572753906
 20
452.08001708984375
 10
235.39999389648438
 20
449.08001708984375
 10
239.47999572753906
 20
452.08001708984375
 10
235.39999389648438
 20
452.08001708984375
 10
239.47999572753906
 20
449.08001708984375
  0
LWPOLYLINE
  5
90
330
17
100
AcDbEntity
  8
0
 62
7
100
AcDbPolyline
 90
6
 70
0
 10
235.0399932861328
 20
452.9200134277344
 10
239.83999633789062
 20
456.0400085449219
 10
235.0399932861328
 20
452.9200134277344
 10
239.83999633789062
 20
456.0400085449219
 10
235.0399932861328
 20
456.0400085449219
 10
239.83999633789062
 20
452.9200134277344
  0
LWPOLYLINE
  5
91
330
17
100
AcDbEntity
  8
0
 62
7
100
AcDbPolyline
 90
6
 70
0
 10
205.1599884033203
 20
449.20001220703125
 10
209.239990234375
 20
452.32000732421875
 10
205.1599884033203
 20
449.20001220703125
 10
209.239990234375
 20
452.32000732421875
 10
205.1599884033203
 20
452.32000732421875
 10
209.239990234375
 20
449.20001220703125
  0
LWPOLYLINE
  5
92
330
17
100
AcDbEntity
  8
0
 62
7
100
AcDbPolyline
 90
6
 70
0
 10
204.8000030517578
 20
453.1600036621094
 10
209.47999572753906
 20
456.1600036621094
 10
204.8000030517578
 20
453.1600036621094
 10
209.47999572753906
 20
456.1600036621094
 10
204.8000030517578
 20
456.1600036621094
 10
209.47999572753906
 20
453.1600036621094
  0
LWPOLYLINE
  5
93
330
17
100
AcDbEntity
  8
0
 62
7
100
AcDbPolyline
 90
3
 70
0
 10
372.67999267578125
 20
378.4000244140625
 10
372.0799865722656
 20
378.4000244140625
 10
373.2799987792969
 20
380.67999267578125
  0
LWPOLYLINE
  5
94
330
17
100
AcDbEntity
  8
0
 62
7
100
AcDbPolyline
 90
3
 70
0
 10
353.1199951171875
 20
403.6000061035156
 10
353.7200012207031
 20
403.6000061035156
 10
352.5199890136719
 20
406.0
  0
LWPOLYLINE
  5
95
330
17
100
AcDbEntity
  8
0
 62
7
100
AcDbPolyline
 90
6
 70
0
 10
438.1999816894531
 20
415.3599853515625
 10
442.3999938964844
 20
418.3599853515625
 10
438.1999816894531
 20
415.3599853515625
 10
442.3999938964844
 20
418.3599853515625
 10
438.1999816894531
 20
418.3599853515625
 10
442.3999938964844
 20
415.3599853515625
  0
LWPOLYLINE
  5
96
330
17
100
AcDbEntity
  8
0
 62
7
100
AcDbPolyline
 90
6
 70
0
 10
437.9599914550781
 20
419.32000732421875
 10
442.6399841308594
 20
422.32000732421875
 10
437.9599914550781
 20
419.32000732421875
 10
442.6399841308594
 20
422.32000732421875
 10
437.9599914550781
 20
422.32000732421875
 10
442.6399841308594
 20
419.32000732421875
  0
LWPOLYLINE
  5
97
330
17
100
AcDbEntity
  8
0
 62
7
100
AcDbPolyline
 90
3
 70
0
 10
199.87998962402344
 20
396.8800048828125
 10
200.47999572753906
 20
396.8800048828125
 10
199.27999877929688
 20
394.4800109863281
  0
LWPOLYLINE
  5
98
330
17
100
AcDbEntity
  8
0
 62
7
100
AcDbPolyline
 90
3
 70
0
 10
244.51998901367188
 20
396.8800048828125
 10
243.9199981689453
 20
396.8800048828125
 10
245.1199951171875
 20
394.4800109863281
  0
LWPOLYLINE
  5
99
330
17
100
AcDbEntity
  8
0
 62
7
100
AcDbPolyline
 90
3
 70
0
 10
297.55999755859375
 20
404.44000244140625
 10
295.1600036621094
 20
405.6400146484375
 10
295.1600036621094
 20
405.0400085449219
  0
LWPOLYLINE
  5
9A
330
17
100
AcDbEntity
  8
0
 62
7
100
AcDbPolyline
 90
3
 70
0
 10
297.55999755859375
 20
411.760009765625
 10
295.1600036621094
 20
412.96002197265625
 10
295.1600036621094
 20
412.3599853515625
  0
LWPOLYLINE
  5
9B
330
17
100
AcDbEntity
  8
0
 62
7
100
AcDbPolyline
 90
6
 70
0
 10
273.67999267578125
 20
383.44000244140625
 10
278.0
 20
386.44000244140625
 10
273.67999267578125
 20
383.44000244140625
 10
278.0
 20
386.44000244140625
 10
273.67999267578125
 20
386.44000244140625
 10
278.0
 20
383.44000244140625
  0
LWPOLYLINE
  5
9C
330
17
100
AcDbEntity
  8
0
 62
7
100
AcDbPolyline
 90
6
 70
0
 10
273.55999755859375
 20
387.2799987792969
 10
278.239990234375
 20
390.4000244140625
 10
273.55999755859375
 20
387.2799987792969
 10
278.239990234375
 20
390.4000244140625
 10
273.55999755859375
 20
390.4000244140625
 10
278.239990234375
 20
387.2799987792969
  0
LWPOLYLINE
  5
9D
330
17
100
AcDbEntity
  8
0
 62
7
100
AcDbPolyline
 90
3
 70
0
 10
259.760009765625
 20
383.67999267578125
 10
260.3599853515625
 20
383.67999267578125
 10
259.15997314453125
 20
381.2799987792969
  0
LWPOLYLINE
  5
9E
330
17
100
AcDbEntity
  8
0
 62
7
100
AcDbPolyline
 90
6
 70
0
 10
339.1999816894531
 20
398.20001220703125
 10
343.3999938964844
 20
401.32000732421875
 10
339.1999816894531
 20
398.20001220703125
 10
343.3999938964844
 20
401.32000732421875
 10
339.1999816894531
 20
401.32000732421875
 10
343.3999938964844
 20
398.20001220703125
  0
LWPOLYLINE
  5
9F
330
17
100
AcDbEntity
  8
0
 62
7
100
AcDbPolyline
 90
6
 70
0
 10
338.9599914550781
 20
402.1600036621094
 10
343.6399841308594
 20
405.1600036621094
 10
338.9599914550781
 20
402.1600036621094
 10
343.6399841308594
 20
405.1600036621094
 10
338.9599914550781
 20
405.1600036621094
 10
343.6399841308594
 20
402.1600036621094
  0
LWPOLYLINE
  5
A0
330
17
100
AcDbEntity
  8
0
 62
7
100
AcDbPolyline
 90
3
 70
0
 10
645.9199829101562
 20
421.3599853515625
 10
643.5199584960938
 20
420.1600036621094
 10
643.5199584960938
 20
420.760009765625
  0
LWPOLYLINE
  5
A1
330
17
100
AcDbEntity
  8
0
 62
7
100
AcDbPolyline
 90
40
 70
0
 10
497.9599914550781
 20
381.6400146484375
 10
497.8399963378906
 20
382.8399963378906
 10
497.5999755859375
 20
383.91998291015625
 10
497.239990234375
 20
385.0
 10
496.8799743652344
 20
386.79998779296875
 10
495.79998779296875
 20
388.3599853515625
 10
494.47998046875
 20
389.55999755859375
 10
492.91998291015625
 20
390.4000244140625
 10
491.1199951171875
 20
391.0
 10
489.1999816894531
 20
391.1199951171875
 10
487.2799987792969
 20
391.0
 10
485.3599853515625
 20
390.52001953125
 10
483.44000244140625
 20
389.79998779296875
 10
481.6399841308594
 20
388.7200012207031
 10
480.0799865722656
 20
387.1600036621094
 10
478.6399841308594
 20
385.3599853515625
 10
477.44000244140625
 20
384.4000244140625
 10
477.0799865722656
 20
383.32000732421875
 10
476.7200012207031
 20
382.1199951171875
 10
476.3599853515625
 20
380.79998779296875
 10
476.239990234375
 20
379.4800109863281
 10
476.3599853515625
 20
378.1600036621094
 10
476.47998046875
 20
377.08001708984375
 10
476.8399963378906
 20
376.0
 10
477.1999816894531
 20
374.08001708984375
 10
478.2799987792969
 20
372.4000244140625
 10
479.5999755859375
 20
371.20001220703125
 10
481.1600036621094
 20
370.239990234375
 10
482.9599914550781
 20
369.760009765625
 10
484.8799743652344
 20
369.52001953125
 10
486.79998779296875
 20
369.6400146484375
 10
488.8399963378906
 20
370.1199951171875
 10
490.7599792480469
 20
370.96002197265625
 10
492.55999755859375
 20
372.1600036621094
 10
494.239990234375
 20
373.6000061035156
 10
495.67999267578125
 20
375.52001953125
 10
496.7599792480469
 20
376.6000061035156
 10
497.239990234375
 20
377.79998779296875
 10
497.5999755859375
 20
379.0
 10
497.8399963378906
 20
380.32000732421875
  0
LWPOLYLINE
  5
A2
330
17
100
AcDbEntity
  8
0
 62
7
100
AcDbPolyline
 90
40
 70
0
 10
497.9599914550781
 20
432.2799987792969
 10
497.8399963378906
 20
433.4800109863281
 10
497.5999755859375
 20
434.67999267578125
 10
497.239990234375
 20
435.6400146484375
 10
496.8799743652344
 20
437.55999755859375
 10
495.79998779296875
 20
439.1199951171875
 10
494.47998046875
 20
440.20001220703125
 10
492.91998291015625
 20
441.1600036621094
 10
491.1199951171875
 20
441.6400146484375
 10
489.1999816894531
 20
441.8800048828125
 10
487.2799987792969
 20
441.760009765625
 10
485.3599853515625
 20
441.2799987792969
 10
483.44000244140625
 20
440.44000244140625
 10
481.6399841308594
 20
439.3599853515625
 10
480.0799865722656
 20
437.9200134277344
 10
478.6399841308594
 20
436.1199951171875
 10
477.55999755859375
 20
435.0400085449219
 10
477.0799865722656
 20
433.9599914550781
 10
476.7200012207031
 20
432.760009765625
 10
476.3599853515625
 20
431.44000244140625
 10
476.239990234375
 20
430.1199951171875
 10
476.3599853515625
 20
428.9200134277344
 10
476.47998046875
 20
427.7200012207031
 10
476.8399963378906
 20
426.6400146484375
 10
477.1999816894531
 20
424.7200012207031
 10
478.2799987792969
 20
423.1600036621094
 10
479.5999755859375
 20
421.9599914550781
 10
481.1600036621094
 20
421.0
 10
482.9599914550781
 20
420.3999938964844
 10
484.8799743652344
 20
420.2799987792969
 10
486.79998779296875
 20
420.3999938964844
 10
488.8399963378906
 20
420.8800048828125
 10
490.7599792480469
 20
421.7200012207031
 10
492.55999755859375
 20
422.79998779296875
 10
494.239990234375
 20
424.3599853515625
 10
495.67999267578125
 20
426.2799987792969
 10
496.7599792480469
 20
427.239990234375
 10
497.239990234375
 20
428.44000244140625
 10
497.5999755859375
 20
429.6400146484375
 10
497.8399963378906
 20
431.08001708984375
  0
LWPOLYLINE
  5
A3
330
17
100
AcDbEntity
  8
0
 62
7
100
AcDbPolyline
 90
20
 70
0
 10
294.1999816894531
 20
358.4800109863281
 10
295.0400085449219
 20
358.1199951171875
 10
295.6399841308594
 20
357.6400146484375
 10
296.0
 20
357.0400085449219
 10
296.1199951171875
 20
356.32000732421875
 10
296.0
 20
355.84002685546875
 10
295.6399841308594
 20
355.4800109863281
 10
295.0400085449219
 20
355.4800109863281
 10
294.1999816894531
 20
358.4800109863281
 10
282.67999267578125
 20
356.91998291015625
 10
288.44000244140625
 20
358.4800109863281
 10
294.1999816894531
 20
355.4800109863281
 10
282.67999267578125
 20
355.4800109863281
 10
281.8399963378906
 20
355.84002685546875
 10
281.239990234375
 20
356.32000732421875
 10
280.8800048828125
 20
357.0400085449219
 10
280.7599792480469
 20
357.6400146484375
 10
280.8800048828125
 20
358.1199951171875
 10
281.239990234375
 20
358.4800109863281
 10
281.8399963378906
 20
358.4800109863281
  0
LWPOLYLINE
  5
A4
330
17
100
AcDbEntity
  8
0
 62
7
100
AcDbPolyline
 90
20
 70
0
 10
317.6000061035156
 20
358.4800109863281
 10
318.44000244140625
 20
358.1199951171875
 10
319.03997802734375
 20
357.6400146484375
 10
319.3999938964844
 20
357.0400085449219
 10
319.5199890136719
 20
356.32000732421875
 10
319.3999938964844
 20
355.84002685546875
 10
319.03997802734375
 20
355.4800109863281
 10
318.44000244140625
 20
355.4800109863281
 10
317.6000061035156
 20
358.4800109863281
 10
306.0799865722656
 20
356.91998291015625
 10
311.8399963378906
 20
358.4800109863281
 10
317.6000061035156
 20
355.4800109863281
 10
306.0799865722656
 20
355.4800109863281
 10
305.239990234375
 20
355.84002685546875
 10
304.6399841308594
 20
356.32000732421875
 10
304.2799987792969
 20
357.0400085449219
 10
304.1600036621094
 20
357.6400146484375
 10
304.2799987792969
 20
358.1199951171875
 10
304.6399841308594
 20
358.4800109863281
 10
305.239990234375
 20
358.4800109863281
  0
LWPOLYLINE
  5
A5
330
17
100
AcDbEntity
  8
0
 62
7
100
AcDbPolyline
 90
20
 70
0
 10
341.239990234375
 20
358.4800109863281
 10
342.0799865722656
 20
358.1199951171875
 10
342.67999267578125
 20
357.6400146484375
 10
343.03997802734375
 20
357.0400085449219
 10
343.1600036621094
 20
356.32000732421875
 10
343.03997802734375
 20
355.84002685546875
 10
342.67999267578125
 20
355.4800109863281
 10
342.0799865722656
 20
355.4800109863281
 10
341.239990234375
 20
358.4800109863281
 10
329.7200012207031
 20
356.91998291015625
 10
335.47998046875
 20
358.4800109863281
 10
341.239990234375
 20
355.4800109863281
 10
329.7200012207031
 20
355.4800109863281
 10
328.8800048828125
 20
355.84002685546875
 10
328.2799987792969
 20
356.32000732421875
 10
327.91998291015625
 20
357.0400085449219
 10
327.79998779296875
 20
357.6400146484375
 10
327.91998291015625
 20
358.1199951171875
 10
328.2799987792969
 20
358.4800109863281
 10
328.8800048828125
 20
358.4800109863281
  0
LWPOLYLINE
  5
A6
330
17
100
AcDbEntity
  8
0
 62
7
100
AcDbPolyline
 90
6
 70
0
 10
353.7200012207031
 20
342.1600036621094
 10
353.7200012207031
 20
342.1600036621094
 10
278.47998046875
 20
354.1600036621094
 10
278.47998046875
 20
342.1600036621094
 10
278.47998046875
 20
342.1600036621094
 10
353.7200012207031
 20
354.1600036621094
  0
LWPOLYLINE
  5
A7
330
17
100
AcDbEntity
  8
0
 62
7
100
AcDbPolyline
 90
2
 70
0
 10
130.04000854492188
 20
519.6400146484375
 10
127.39999389648438
 20
519.6400146484375
  0
LWPOLYLINE
  5
A8
330
17
100
AcDbEntity
  8
0
 62
7
100
AcDbPolyline
 90
2
 70
0
 10
133.8800048828125
 20
519.6400146484375
 10
131.36000061035156
 20
519.6400146484375
  0
LWPOLYLINE
  5
A9
330
17
100
AcDbEntity
  8
0
 62
7
100
AcDbPolyline
 90
2
 70
0
 10
137.83999633789062
 20
519.6400146484375
 10
135.1999969482422
 20
519.6400146484375
  0
LWPOLYLINE
  5
AA
330
17
100
AcDbEntity
  8
0
 62
7
100
AcDbPolyline
 90
2
 70
0
 10
141.07998657226562
 20
519.6400146484375
 10
139.16000366210938
 20
519.6400146484375
  0
LWPOLYLINE
  5
AB
330
17
100
AcDbEntity
  8
0
 62
7
100
AcDbPolyline
 90
2
 70
0
 10
130.04000854492188
 20
523.239990234375
 10
127.39999389648438
 20
523.239990234375
  0
LWPOLYLINE
  5
AC
330
17
100
AcDbEntity
  8
0
 62
7
100
AcDbPolyline
 90
2
 70
0
 10
133.8800048828125
 20
523.239990234375
 10
131.36000061035156
 20
523.239990234375
  0
LWPOLYLINE
  5
AD
330
17
100
AcDbEntity
  8
0
 62
7
100
AcDbPolyline
 90
2
 70
0
 10
137.83999633789062
 20
523.239990234375
 10
135.1999969482422
 20
523.239990234375
  0
LWPOLYLINE
  5
AE
330
17
100
AcDbEntity
  8
0
 62
7
100
AcDbPolyline
 90
6
 70
0
 10
142.87998962402344
 20
522.280029296875
 10
142.63999938964844
 20
522.760009765625
 10
142.27999877929688
 20
523.1199951171875
 10
141.67999267578125
 20
523.239990234375
 10
141.07998657226562
 20
523.239990234375
 10
139.16000366210938
 20
523.239990234375
  0
LWPOLYLINE
  5
AF
330
17
100
AcDbEntity
  8
0
 62
7
100
AcDbPolyline
 90
2
 70
0
 10
142.52000427246094
 20
519.8800048828125
 10
141.9199981689453
 20
519.6400146484375
  0
LWPOLYLINE
  5
B0
330
17
100
AcDbEntity
  8
0
 62
7
100
AcDbPolyline
 90
6
 70
0
 10
125.0
 20
523.239990234375
 10
122.5999984741211
 20
519.6400146484375
 10
122.5999984741211
 20
519.6400146484375
 10
125.0
 20
519.6400146484375
 10
122.5999984741211
 20
523.239990234375
 10
122.5999984741211
 20
523.239990234375
  0
LWPOLYLINE
  5
B1
330
17
100
AcDbEntity
  8
0
 62
7
100
AcDbPolyline
 90
2
 70
0
 10
582.7999877929688
 20
524.7999877929688
 10
585.4400024414062
 20
524.7999877929688
  0
LWPOLYLINE
  5
B2
330
17
100
AcDbEntity
  8
0
 62
7
100
AcDbPolyline
 90
2
 70
0
 10
578.8399658203125
 20
524.7999877929688
 10
581.47998046875
 20
524.7999877929688
  0
LWPOLYLINE
  5
B3
330
17
100
AcDbEntity
  8
0
 62
7
100
AcDbPolyline
 90
2
 70
0
 10
574.8800048828125
 20
524.7999877929688
 10
577.5199584960938
 20
524.7999877929688
  0
LWPOLYLINE
  5
B4
330
17
100
AcDbEntity
  8
0
 62
7
100
AcDbPolyline
 90
10
 70
0
 10
572.5999755859375
 20
524.7999877929688
 10
573.6799926757812
 20
524.7999877929688
 10
572.5999755859375
 20
524.7999877929688
 10
572.239990234375
 20
524.6799926757812
 10
571.8800048828125
 20
524.5599975585938
 10
571.6400146484375
 20
524.3200073242188
 10
571.3999633789062
 20
524.5599975585938
 10
571.6400146484375
 20
524.6799926757812
 10
571.8800048828125
 20
524.7999877929688
 10
572.239990234375
 20
524.7999877929688
  0
LWPOLYLINE
  5
B5
330
17
100
AcDbEntity
  8
0
 62
7
100
AcDbPolyline
 90
2
 70
0
 10
582.7999877929688
 20
521.4400024414062
 10
585.4400024414062
 20
521.4400024414062
  0
LWPOLYLINE
  5
B6
330
17
100
AcDbEntity
  8
0
 62
7
100
AcDbPolyline
 90
2
 70
0
 10
578.8399658203125
 20
521.4400024414062
 10
581.47998046875
 20
521.4400024414062
  0
LWPOLYLINE
  5
B7
330
17
100
AcDbEntity
  8
0
 62
7
100
AcDbPolyline
 90
2
 70
0
 10
574.8800048828125
 20
521.4400024414062
 10
577.5199584960938
 20
521.4400024414062
  0
LWPOLYLINE
  5
B8
330
17
100
AcDbEntity
  8
0
 62
7
100
AcDbPolyline
 90
2
 70
0
 10
572.5999755859375
 20
521.4400024414062
 10
573.6799926757812
 20
521.4400024414062
  0
LWPOLYLINE
  5
B9
330
17
100
AcDbEntity
  8
0
 62
7
100
AcDbPolyline
 90
6
 70
0
 10
587.719970703125
 20
521.4400024414062
 10
589.8800048828125
 20
524.7999877929688
 10
589.8800048828125
 20
524.7999877929688
 10
587.719970703125
 20
524.7999877929688
 10
589.8800048828125
 20
521.4400024414062
 10
589.8800048828125
 20
521.4400024414062
  0
LWPOLYLINE
  5
BA
330
17
100
AcDbEntity
  8
0
 62
7
100
AcDbPolyline
 90
4
 70
0
 10
141.07998657226562
 20
523.1199951171875
 10
141.67999267578125
 20
522.760009765625
 10
142.27999877929688
 20
522.280029296875
 10
142.63999938964844
 20
521.5599975585938
  0
LWPOLYLINE
  5
BB
330
17
100
AcDbEntity
  8
0
 62
7
100
AcDbPolyline
 90
2
 70
0
 10
142.52000427246094
 20
519.8800048828125
 10
141.9199981689453
 20
519.6400146484375
  0
LWPOLYLINE
  5
BC
330
17
100
AcDbEntity
  8
0
 62
7
100
AcDbPolyline
 90
11
 70
0
 10
328.03997802734375
 20
499.6000061035156
 10
327.79998779296875
 20
498.8800048828125
 10
327.32000732421875
 20
498.5199890136719
 10
326.6000061035156
 20
498.3999938964844
 10
325.7599792480469
 20
498.5199890136719
 10
324.91998291015625
 20
498.8800048828125
 10
324.32000732421875
 20
499.6000061035156
 10
323.7200012207031
 20
500.55999755859375
 10
323.47998046875
 20
508.1199951171875
 10
323.47998046875
 20
508.1199951171875
 10
328.03997802734375
 20
500.55999755859375
  0
LWPOLYLINE
  5
BD
330
17
100
AcDbEntity
  8
0
 62
7
100
AcDbPolyline
 90
7
 70
0
 10
327.67999267578125
 20
520.9600219726562
 10
327.32000732421875
 20
521.3200073242188
 10
326.9599914550781
 20
521.5599975585938
 10
326.0
 20
521.5599975585938
 10
325.03997802734375
 20
521.0800170898438
 10
324.32000732421875
 20
520.239990234375
 10
323.7200012207031
 20
519.4000244140625
  0
LWPOLYLINE
  5
BE
330
17
100
AcDbEntity
  8
0
 62
7
100
AcDbPolyline
 90
11
 70
0
 10
323.47998046875
 20
508.1199951171875
 10
323.47998046875
 20
508.1199951171875
 10
328.03997802734375
 20
519.4000244140625
 10
328.03997802734375
 20
520.3599853515625
 10
327.79998779296875
 20
521.0800170898438
 10
327.32000732421875
 20
521.4400024414062
 10
326.6000061035156
 20
521.5599975585938
 10
325.7599792480469
 20
521.4400024414062
 10
325.03997802734375
 20
521.0800170898438
 10
324.32000732421875
 20
520.3599853515625
 10
323.7200012207031
 20
519.4000244140625
  0
LWPOLYLINE
  5
BF
330
17
100
AcDbEntity
  8
0
 62
7
100
AcDbPolyline
 90
2
 70
0
 10
615.2000122070312
 20
533.6799926757812
 10
613.2799682617188
 20
533.6799926757812
  0
LWPOLYLINE
  5
C0
330
17
100
AcDbEntity
  8
0
 62
7
100
AcDbPolyline
 90
3
 70
0
 10
381.1999816894531
 20
479.20001220703125
 10
381.1999816894531
 20
479.20001220703125
 10
366.55999755859375
 20
479.20001220703125
  0
LWPOLYLINE
  5
C1
330
17
100
AcDbEntity
  8
0
 62
7
100
AcDbPolyline
 90
3
 70
0
 10
382.3999938964844
 20
478.1199951171875
 10
370.03997802734375
 20
478.1199951171875
 10
366.55999755859375
 20
478.1199951171875
  0
LWPOLYLINE
  5
C2
330
17
100
AcDbEntity
  8
0
 62
7
100
AcDbPolyline
 90
3
 70
0
 10
403.5199890136719
 20
479.20001220703125
 10
403.5199890136719
 20
479.20001220703125
 10
389.6000061035156
 20
479.20001220703125
  0
LWPOLYLINE
  5
C3
330
17
100
AcDbEntity
  8
0
 62
7
100
AcDbPolyline
 90
3
 70
0
 10
404.7200012207031
 20
478.1199951171875
 10
393.0799865722656
 20
478.1199951171875
 10
389.6000061035156
 20
478.1199951171875
  0
LWPOLYLINE
  5
C4
330
17
100
AcDbEntity
  8
0
 62
7
100
AcDbPolyline
 90
4
 70
0
 10
353.9599914550781
 20
490.0
 10
353.9599914550781
 20
485.9200134277344
 10
353.9599914550781
 20
485.9200134277344
 10
346.3999938964844
 20
490.0
  0
LWPOLYLINE
  5
C5
330
17
100
AcDbEntity
  8
0
 62
7
100
AcDbPolyline
 90
3
 70
0
 10
352.7599792480469
 20
483.6400146484375
 10
352.7599792480469
 20
483.6400146484375
 10
347.47998046875
 20
485.9200134277344
  0
LWPOLYLINE
  5
C6
330
17
100
AcDbEntity
  8
0
 62
7
100
AcDbPolyline
 90
32
 70
0
 10
532.0399780273438
 20
441.8800048828125
 10
531.9199829101562
 20
442.8399963378906
 10
531.5599975585938
 20
443.67999267578125
 10
531.0800170898438
 20
444.2799987792969
 10
530.47998046875
 20
444.8800048828125
 10
529.8800048828125
 20
445.239990234375
 10
529.0399780273438
 20
445.4800109863281
 10
528.3200073242188
 20
445.6000061035156
 10
527.47998046875
 20
445.4800109863281
 10
526.6400146484375
 20
445.3599853515625
 10
525.7999877929688
 20
445.0
 10
524.9599609375
 20
444.52001953125
 10
524.239990234375
 20
443.9200134277344
 10
523.6400146484375
 20
443.08001708984375
 10
523.1600341796875
 20
442.239990234375
 10
522.7999877929688
 20
441.1600036621094
 10
522.5599975585938
 20
439.9599914550781
 10
522.6799926757812
 20
439.0
 10
522.9199829101562
 20
438.1600036621094
 10
523.4000244140625
 20
437.44000244140625
 10
524.0
 20
436.8399963378906
 10
524.5999755859375
 20
436.4800109863281
 10
525.4400024414062
 20
436.1199951171875
 10
526.2799682617188
 20
436.1199951171875
 10
527.1199951171875
 20
436.1199951171875
 10
527.9599609375
 20
436.3599853515625
 10
528.9199829101562
 20
436.7200012207031
 10
529.6400146484375
 20
437.20001220703125
 10
530.3599853515625
 20
437.79998779296875
 10
531.0800170898438
 20
438.6400146484375
 10
531.5599975585938
 20
439.7200012207031
 10
531.9199829101562
 20
440.79998779296875
  0
LWPOLYLINE
  5
C7
330
17
100
AcDbEntity
  8
0
 62
7
100
AcDbPolyline
 90
5
 70
0
 10
563.8399658203125
 20
406.47998046875
 10
566.719970703125
 20
406.239990234375
 10
565.1599731445312
 20
406.47998046875
 10
565.2799682617188
 20
406.8399963378906
 10
565.1599731445312
 20
406.47998046875
  0
LWPOLYLINE
  5
C8
330
17
100
AcDbEntity
  8
0
 62
7
100
AcDbPolyline
 90
3
 70
0
 10
565.5199584960938
 20
406.47998046875
 10
565.5199584960938
 20
406.47998046875
 10
565.8800048828125
 20
406.6000061035156
  0
LWPOLYLINE
  5
C9
330
17
100
AcDbEntity
  8
0
 62
7
100
AcDbPolyline
 90
3
 70
0
 10
565.760009765625
 20
409.3599853515625
 10
562.8800048828125
 20
407.91998291015625
 10
565.760009765625
 20
410.79998779296875
  0
LWPOLYLINE
  5
CA
330
17
100
AcDbEntity
  8
0
 62
7
100
AcDbPolyline
 90
5
 70
0
 10
562.8800048828125
 20
409.3599853515625
 10
562.8800048828125
 20
412.239990234375
 10
564.3200073242188
 20
412.239990234375
 10
561.4400024414062
 20
409.3599853515625
 10
562.8800048828125
 20
399.2799987792969
  0
LWPOLYLINE
  5
CB
330
17
100
AcDbEntity
  8
0
 62
7
100
AcDbPolyline
 90
32
 70
0
 10
354.44000244140625
 20
466.8399963378906
 10
354.32000732421875
 20
467.67999267578125
 10
353.9599914550781
 20
468.52001953125
 10
353.6000061035156
 20
469.239990234375
 10
353.0
 20
469.7200012207031
 10
352.2799987792969
 20
470.08001708984375
 10
351.55999755859375
 20
470.32000732421875
 10
350.7200012207031
 20
470.44000244140625
 10
349.8800048828125
 20
470.44000244140625
 10
349.03997802734375
 20
470.20001220703125
 10
348.1999816894531
 20
469.8399963378906
 10
347.3599853515625
 20
469.3599853515625
 10
346.6399841308594
 20
468.760009765625
 10
346.03997802734375
 20
468.0400085449219
 10
345.55999755859375
 20
467.08001708984375
 10
345.1999816894531
 20
466.0
 10
344.9599914550781
 20
464.91998291015625
 10
345.0799865722656
 20
463.8399963378906
 10
345.32000732421875
 20
463.0
 10
345.79998779296875
 20
462.2799987792969
 10
346.3999938964844
 20
461.67999267578125
 10
347.1199951171875
 20
461.32000732421875
 10
347.8399963378906
 20
461.08001708984375
 10
348.67999267578125
 20
460.9599914550781
 10
349.5199890136719
 20
460.9599914550781
 10
350.47998046875
 20
461.20001220703125
 10
351.32000732421875
 20
461.55999755859375
 10
352.03997802734375
 20
462.0400085449219
 10
352.8800048828125
 20
462.760009765625
 10
353.47998046875
 20
463.6000061035156
 10
353.9599914550781
 20
464.55999755859375
 10
354.32000732421875
 20
465.760009765625
  0
LWPOLYLINE
  5
CC
330
17
100
AcDbEntity
  8
0
 62
7
100
AcDbPolyline
 90
33
 70
0
 10
375.55999755859375
 20
466.8399963378906
 10
375.79998779296875
 20
467.79998779296875
 10
376.03997802734375
 20
468.6400146484375
 10
376.5199890136719
 20
469.239990234375
 10
377.239990234375
 20
469.8399963378906
 10
377.8399963378906
 20
470.20001220703125
 10
378.67999267578125
 20
470.32000732421875
 10
379.5199890136719
 20
470.44000244140625
 10
380.3599853515625
 20
470.32000732421875
 10
381.1999816894531
 20
470.20001220703125
 10
382.03997802734375
 20
469.8399963378906
 10
382.8800048828125
 20
469.239990234375
 10
383.6000061035156
 20
468.6400146484375
 10
384.1999816894531
 20
467.79998779296875
 10
384.67999267578125
 20
466.8399963378906
 10
384.91998291015625
 20
465.760009765625
 10
385.1600036621094
 20
464.55999755859375
 10
384.91998291015625
 20
463.6000061035156
 10
384.67999267578125
 20
462.760009765625
 10
384.1999816894531
 20
462.1600036621094
 10
383.6000061035156
 20
461.67999267578125
 10
382.8800048828125
 20
461.20001220703125
 10
382.03997802734375
 20
461.08001708984375
 10
381.1999816894531
 20
460.9599914550781
 10
380.3599853515625
 20
461.08001708984375
 10
379.5199890136719
 20
461.20001220703125
 10
378.67999267578125
 20
461.67999267578125
 10
377.8399963378906
 20
462.1600036621094
 10
377.239990234375
 20
462.760009765625
 10
376.5199890136719
 20
463.6000061035156
 10
376.03997802734375
 20
464.55999755859375
 10
375.79998779296875
 20
465.760009765625
 10
375.55999755859375
 20
465.760009765625
  0
LWPOLYLINE
  5
CD
330
17
100
AcDbEntity
  8
0
 62
7
100
AcDbPolyline
 90
2
 70
0
 10
373.8800048828125
 20
465.760009765625
 10
375.0799865722656
 20
466.0
  0
LWPOLYLINE
  5
CE
330
17
100
AcDbEntity
  8
0
 62
7
100
AcDbPolyline
 90
2
 70
0
 10
374.0
 20
465.760009765625
 10
374.6000061035156
 20
465.8800048828125
  0
LWPOLYLINE
  5
CF
330
17
100
AcDbEntity
  8
0
 62
7
100
AcDbPolyline
 90
3
 70
0
 10
374.1199951171875
 20
465.760009765625
 10
374.6000061035156
 20
465.760009765625
 10
375.0799865722656
 20
465.760009765625
  0
LWPOLYLINE
  5
D0
330
17
100
AcDbEntity
  8
0
 62
7
100
AcDbPolyline
 90
5
 70
0
 10
236.47999572753906
 20
463.9599914550781
 10
233.47999572753906
 20
463.7200012207031
 10
235.1599884033203
 20
463.9599914550781
 10
234.9199981689453
 20
464.32000732421875
 10
235.1599884033203
 20
463.9599914550781
  0
LWPOLYLINE
  5
D1
330
17
100
AcDbEntity
  8
0
 62
7
100
AcDbPolyline
 90
3
 70
0
 10
234.79998779296875
 20
463.9599914550781
 10
234.79998779296875
 20
463.9599914550781
 10
234.44000244140625
 20
464.08001708984375
  0
LWPOLYLINE
  5
D2
330
17
100
AcDbEntity
  8
0
 62
7
100
AcDbPolyline
 90
3
 70
0
 10
234.55999755859375
 20
466.8399963378906
 10
237.44000244140625
 20
465.3999938964844
 10
234.55999755859375
 20
468.2799987792969
  0
LWPOLYLINE
  5
D3
330
17
100
AcDbEntity
  8
0
 62
7
100
AcDbPolyline
 90
5
 70
0
 10
237.44000244140625
 20
466.8399963378906
 10
237.44000244140625
 20
469.7200012207031
 10
236.0
 20
469.7200012207031
 10
238.87998962402344
 20
466.8399963378906
 10
237.44000244140625
 20
457.239990234375
  0
LWPOLYLINE
  5
D4
330
17
100
AcDbEntity
  8
0
 62
7
100
AcDbPolyline
 90
5
 70
0
 10
208.0399932861328
 20
464.32000732421875
 10
211.0399932861328
 20
463.9599914550781
 10
209.36000061035156
 20
464.32000732421875
 10
209.59999084472656
 20
464.67999267578125
 10
209.36000061035156
 20
464.32000732421875
  0
LWPOLYLINE
  5
D5
330
17
100
AcDbEntity
  8
0
 62
7
100
AcDbPolyline
 90
3
 70
0
 10
209.72000122070312
 20
464.20001220703125
 10
209.72000122070312
 20
464.32000732421875
 10
210.0800018310547
 20
464.44000244140625
  0
LWPOLYLINE
  5
D6
330
17
100
AcDbEntity
  8
0
 62
7
100
AcDbPolyline
 90
3
 70
0
 10
209.95999145507812
 20
467.20001220703125
 10
207.0800018310547
 20
465.760009765625
 10
209.95999145507812
 20
468.6400146484375
  0
LWPOLYLINE
  5
D7
330
17
100
AcDbEntity
  8
0
 62
7
100
AcDbPolyline
 90
5
 70
0
 10
207.0800018310547
 20
467.20001220703125
 10
207.0800018310547
 20
470.08001708984375
 10
208.51998901367188
 20
470.08001708984375
 10
205.63999938964844
 20
467.20001220703125
 10
207.0800018310547
 20
457.4800109863281
  0
LWPOLYLINE
  5
D8
330
17
100
AcDbEntity
  8
0
 62
7
100
AcDbPolyline
 90
32
 70
0
 10
124.5199966430664
 20
493.4800109863281
 10
124.39999389648438
 20
494.44000244140625
 10
124.04000091552734
 20
495.2799987792969
 10
123.55999755859375
 20
495.8800048828125
 10
122.95999908447266
 20
496.4800109863281
 10
122.36000061035156
 20
496.8399963378906
 10
121.5199966430664
 20
497.08001708984375
 10
120.79999542236328
 20
497.20001220703125
 10
119.83999633789062
 20
497.20001220703125
 10
119.0
 20
496.9599914550781
 10
118.27999877929688
 20
496.6000061035156
 10
117.43999481201172
 20
496.1199951171875
 10
116.72000122070312
 20
495.5199890136719
 10
116.1199951171875
 20
494.67999267578125
 10
115.5199966430664
 20
493.8399963378906
 10
115.15999603271484
 20
492.760009765625
 10
115.04000091552734
 20
491.55999755859375
 10
115.04000091552734
 20
490.6000061035156
 10
115.4000015258789
 20
489.760009765625
 10
115.75999450683594
 20
489.0400085449219
 10
116.36000061035156
 20
488.44000244140625
 10
117.07999420166016
 20
488.08001708984375
 10
117.91999816894531
 20
487.8399963378906
 10
118.75999450683594
 20
487.7200012207031
 10
119.5999984741211
 20
487.7200012207031
 10
120.43999481201172
 20
487.9599914550781
 10
121.27999877929688
 20
488.32000732421875
 10
122.1199951171875
 20
488.79998779296875
 10
122.83999633789062
 20
489.5199890136719
 10
123.43999481201172
 20
490.3599853515625
 10
124.04000091552734
 20
491.32000732421875
 10
124.39999389648438
 20
492.3999938964844
  0
LWPOLYLINE
  5
D9
330
17
100
AcDbEntity
  8
0
 62
7
100
AcDbPolyline
 90
32
 70
0
 10
124.5199966430664
 20
509.08001708984375
 10
124.39999389648438
 20
510.0400085449219
 10
124.04000091552734
 20
510.760009765625
 10
123.55999755859375
 20
511.4800109863281
 10
122.95999908447266
 20
511.9599914550781
 10
122.36000061035156
 20
512.4400024414062
 10
121.5199966430664
 20
512.6799926757812
 10
120.79999542236328
 20
512.6799926757812
 10
119.95999908447266
 20
512.6799926757812
 10
119.0
 20
512.5599975585938
 10
118.27999877929688
 20
512.2000122070312
 10
117.43999481201172
 20
511.7200012207031
 10
116.72000122070312
 20
511.1199951171875
 10
116.1199951171875
 20
510.2799987792969
 10
115.5199966430664
 20
509.32000732421875
 10
115.15999603271484
 20
508.239990234375
 10
115.04000091552734
 20
507.1600036621094
 10
115.04000091552734
 20
506.08001708984375
 10
115.4000015258789
 20
505.239990234375
 10
115.75999450683594
 20
504.5199890136719
 10
116.36000061035156
 20
504.0400085449219
 10
117.07999420166016
 20
503.55999755859375
 10
117.91999816894531
 20
503.32000732421875
 10
118.75999450683594
 20
503.20001220703125
 10
119.5999984741211
 20
503.32000732421875
 10
120.43999481201172
 20
503.55999755859375
 10
121.27999877929688
 20
503.79998779296875
 10
122.1199951171875
 20
504.3999938964844
 10
122.83999633789062
 20
505.0
 10
123.43999481201172
 20
505.8399963378906
 10
124.04000091552734
 20
506.79998779296875
 10
124.39999389648438
 20
508.0
  0
LWPOLYLINE
  5
DA
330
17
100
AcDbEntity
  8
0
 62
7
100
AcDbPolyline
 90
33
 70
0
 10
103.75999450683594
 20
530.7999877929688
 10
94.27999877929688
 20
531.8800048828125
 10
94.5199966430664
 20
532.719970703125
 10
94.87999725341797
 20
533.5599975585938
 10
95.47999572753906
 20
534.1599731445312
 10
96.08000183105469
 20
534.6400146484375
 10
96.79999542236328
 20
535.0
 10
97.5199966430664
 20
535.1199951171875
 10
98.36000061035156
 20
535.239990234375
 10
99.19999694824219
 20
535.1199951171875
 10
100.04000091552734
 20
534.8800048828125
 10
100.87999725341797
 20
534.4000244140625
 10
101.5999984741211
 20
533.9199829101562
 10
102.31999969482422
 20
533.3200073242188
 10
102.91999816894531
 20
532.47998046875
 10
103.4000015258789
 20
531.52001953125
 10
103.75999450683594
 20
530.4400024414062
 10
103.87999725341797
 20
529.3599853515625
 10
103.63999938964844
 20
528.280029296875
 10
103.4000015258789
 20
527.4400024414062
 10
102.79999542236328
 20
526.8400268554688
 10
102.19999694824219
 20
526.3599853515625
 10
101.47999572753906
 20
526.0
 10
100.63999938964844
 20
525.760009765625
 10
99.79999542236328
 20
525.6400146484375
 10
98.95999908447266
 20
525.760009765625
 10
98.0
 20
526.0
 10
97.15999603271484
 20
526.47998046875
 10
96.43999481201172
 20
526.9600219726562
 10
95.72000122070312
 20
527.6799926757812
 10
95.1199951171875
 20
528.6400146484375
 10
94.75999450683594
 20
529.5999755859375
 10
94.4000015258789
 20
530.7999877929688
  0
LWPOLYLINE
  5
DB
330
17
100
AcDbEntity
  8
0
 62
7
100
AcDbPolyline
 90
32
 70
0
 10
179.0
 20
422.79998779296875
 10
178.87998962402344
 20
423.760009765625
 10
178.63999938964844
 20
424.6000061035156
 10
178.16000366210938
 20
425.32000732421875
 10
177.55999755859375
 20
425.79998779296875
 10
176.83999633789062
 20
426.1600036621094
 10
176.1199951171875
 20
426.3999938964844
 10
175.27999877929688
 20
426.52001953125
 10
174.44000244140625
 20
426.52001953125
 10
173.59999084472656
 20
426.2799987792969
 10
172.75999450683594
 20
425.9200134277344
 10
171.9199981689453
 20
425.44000244140625
 10
171.1999969482422
 20
424.8399963378906
 10
170.59999084472656
 20
424.1199951171875
 10
170.1199951171875
 20
423.1600036621094
 10
169.75999450683594
 20
422.08001708984375
 10
169.51998901367188
 20
420.8800048828125
 10
169.63999938964844
 20
419.9200134277344
 10
169.87998962402344
 20
419.08001708984375
 10
170.36000061035156
 20
418.3599853515625
 10
170.95999145507812
 20
417.760009765625
 10
171.55999755859375
 20
417.4000244140625
 10
172.39999389648438
 20
417.1600036621094
 10
173.239990234375
 20
417.0400085449219
 10
174.0800018310547
 20
417.0400085449219
 10
175.0399932861328
 20
417.2799987792969
 10
175.87998962402344
 20
417.6400146484375
 10
176.72000122070312
 20
418.1199951171875
 10
177.44000244140625
 20
418.8399963378906
 10
178.0399932861328
 20
419.67999267578125
 10
178.51998901367188
 20
420.6400146484375
 10
178.87998962402344
 20
421.7200012207031
  0
LWPOLYLINE
  5
DC
330
17
100
AcDbEntity
  8
0
 62
7
100
AcDbPolyline
 90
32
 70
0
 10
637.760009765625
 20
535.9600219726562
 10
637.5199584960938
 20
536.9199829101562
 10
637.2799682617188
 20
537.6400146484375
 10
636.7999877929688
 20
538.3599853515625
 10
636.2000122070312
 20
538.8400268554688
 10
635.47998046875
 20
539.3200073242188
 10
634.760009765625
 20
539.5599975585938
 10
633.9199829101562
 20
539.5599975585938
 10
633.0799560546875
 20
539.5599975585938
 10
632.239990234375
 20
539.4400024414062
 10
631.3999633789062
 20
539.0800170898438
 10
630.6799926757812
 20
538.5999755859375
 10
629.9599609375
 20
538.0
 10
629.239990234375
 20
537.1599731445312
 10
628.760009765625
 20
536.2000122070312
 10
628.3999633789062
 20
535.1199951171875
 10
628.1599731445312
 20
534.0399780273438
 10
628.2799682617188
 20
532.9600219726562
 10
628.5199584960938
 20
532.1199951171875
 10
629.0
 20
531.4000244140625
 10
629.5999755859375
 20
530.9199829101562
 10
630.3200073242188
 20
530.4400024414062
 10
631.0399780273438
 20
530.2000122070312
 10
631.8800048828125
 20
530.0800170898438
 10
632.719970703125
 20
530.2000122070312
 10
633.6799926757812
 20
530.3200073242188
 10
634.5199584960938
 20
530.6799926757812
 10
635.3599853515625
 20
531.280029296875
 10
636.0799560546875
 20
531.8800048828125
 10
636.6799926757812
 20
532.719970703125
 10
637.1599731445312
 20
533.6799926757812
 10
637.5199584960938
 20
534.8800048828125
  0
LWPOLYLINE
  5
DD
330
17
100
AcDbEntity
  8
0
 62
7
100
AcDbPolyline
 90
32
 70
0
 10
649.8800048828125
 20
537.1599731445312
 10
649.760009765625
 20
538.1199951171875
 10
649.3999633789062
 20
538.8400268554688
 10
648.9199829101562
 20
539.5599975585938
 10
648.4400024414062
 20
540.0399780273438
 10
647.719970703125
 20
540.4000244140625
 10
646.8800048828125
 20
540.6400146484375
 10
646.1599731445312
 20
540.760009765625
 10
645.3200073242188
 20
540.760009765625
 10
644.47998046875
 20
540.52001953125
 10
643.6400146484375
 20
540.280029296875
 10
642.7999877929688
 20
539.7999877929688
 10
642.0799560546875
 20
539.0800170898438
 10
641.47998046875
 20
538.3599853515625
 10
641.0
 20
537.4000244140625
 10
640.6400146484375
 20
536.3200073242188
 10
640.3999633789062
 20
535.239990234375
 10
640.5199584960938
 20
534.1599731445312
 10
640.760009765625
 20
533.3200073242188
 10
641.239990234375
 20
532.5999755859375
 10
641.8399658203125
 20
532.1199951171875
 10
642.4400024414062
 20
531.6400146484375
 10
643.2799682617188
 20
531.4000244140625
 10
644.1199951171875
 20
531.280029296875
 10
644.9599609375
 20
531.4000244140625
 10
645.7999877929688
 20
531.52001953125
 10
646.760009765625
 20
531.8800048828125
 10
647.47998046875
 20
532.3599853515625
 10
648.2000122070312
 20
533.0800170898438
 10
648.9199829101562
 20
533.9199829101562
 10
649.3999633789062
 20
534.8800048828125
 10
649.760009765625
 20
536.0800170898438
  0
LWPOLYLINE
  5
DE
330
17
100
AcDbEntity
  8
0
 62
7
100
AcDbPolyline
 90
32
 70
0
 10
599.5999755859375
 20
505.8399963378906
 10
599.47998046875
 20
506.79998779296875
 10
599.239990234375
 20
507.5199890136719
 10
598.760009765625
 20
508.239990234375
 10
598.1599731445312
 20
508.7200012207031
 10
597.4400024414062
 20
509.08001708984375
 10
596.719970703125
 20
509.32000732421875
 10
595.8800048828125
 20
509.44000244140625
 10
595.0399780273438
 20
509.44000244140625
 10
594.2000122070312
 20
509.20001220703125
 10
593.3599853515625
 20
508.9599914550781
 10
592.6400146484375
 20
508.4800109863281
 10
591.9199829101562
 20
507.760009765625
 10
591.2000122070312
 20
507.0400085449219
 10
590.719970703125
 20
506.08001708984375
 10
590.3599853515625
 20
505.0
 10
590.1199951171875
 20
503.9200134277344
 10
590.239990234375
 20
502.8399963378906
 10
590.47998046875
 20
502.0
 10
590.9599609375
 20
501.2799987792969
 10
591.5599975585938
 20
500.79998779296875
 10
592.2799682617188
 20
500.32000732421875
 10
593.0
 20
500.08001708984375
 10
593.8399658203125
 20
499.9599914550781
 10
594.7999877929688
 20
500.08001708984375
 10
595.6400146484375
 20
500.20001220703125
 10
596.47998046875
 20
500.55999755859375
 10
597.3200073242188
 20
501.0400085449219
 10
598.0399780273438
 20
501.760009765625
 10
598.6400146484375
 20
502.6000061035156
 10
599.1199951171875
 20
503.55999755859375
 10
599.47998046875
 20
504.760009765625
  0
LWPOLYLINE
  5
DF
330
17
100
AcDbEntity
  8
0
 62
7
100
AcDbPolyline
 90
32
 70
0
 10
274.5199890136719
 20
422.44000244140625
 10
274.3999938964844
 20
423.2799987792969
 10
274.1600036621094
 20
424.1199951171875
 10
273.67999267578125
 20
424.8399963378906
 10
273.0799865722656
 20
425.32000732421875
 10
272.3599853515625
 20
425.67999267578125
 10
271.6399841308594
 20
425.9200134277344
 10
270.79998779296875
 20
426.0400085449219
 10
269.9599914550781
 20
426.0400085449219
 10
269.1199951171875
 20
425.79998779296875
 10
268.2799987792969
 20
425.55999755859375
 10
267.44000244140625
 20
425.08001708984375
 10
266.8399963378906
 20
424.3599853515625
 10
266.1199951171875
 20
423.6400146484375
 10
265.6400146484375
 20
422.67999267578125
 10
265.2799987792969
 20
421.6000061035156
 10
265.03997802734375
 20
420.52001953125
 10
265.15997314453125
 20
419.44000244140625
 10
265.3999938964844
 20
418.6000061035156
 10
265.8800048828125
 20
417.8800048828125
 10
266.47998046875
 20
417.4000244140625
 10
267.20001220703125
 20
416.91998291015625
 10
267.91998291015625
 20
416.67999267578125
 10
268.760009765625
 20
416.55999755859375
 10
269.5999755859375
 20
416.67999267578125
 10
270.55999755859375
 20
416.79998779296875
 10
271.3999938964844
 20
417.1600036621094
 10
272.239990234375
 20
417.6400146484375
 10
272.9599914550781
 20
418.3599853515625
 10
273.55999755859375
 20
419.20001220703125
 10
274.0400085449219
 20
420.1600036621094
 10
274.3999938964844
 20
421.3599853515625
  0
LWPOLYLINE
  5
E0
330
17
100
AcDbEntity
  8
0
 62
7
100
AcDbPolyline
 90
32
 70
0
 10
424.6399841308594
 20
390.52001953125
 10
424.5199890136719
 20
391.4800109863281
 10
424.1600036621094
 20
392.20001220703125
 10
423.79998779296875
 20
392.91998291015625
 10
423.1999816894531
 20
393.4000244140625
 10
422.47998046875
 20
393.760009765625
 10
421.7599792480469
 20
394.0
 10
420.91998291015625
 20
394.1199951171875
 10
420.0799865722656
 20
394.1199951171875
 10
419.239990234375
 20
393.8800048828125
 10
418.3999938964844
 20
393.52001953125
 10
417.55999755859375
 20
393.0400085449219
 10
416.8399963378906
 20
392.44000244140625
 10
416.239990234375
 20
391.7200012207031
 10
415.7599792480469
 20
390.760009765625
 10
415.3999938964844
 20
389.67999267578125
 10
415.1600036621094
 20
388.6000061035156
 10
415.2799987792969
 20
387.52001953125
 10
415.5199890136719
 20
386.67999267578125
 10
416.0
 20
385.96002197265625
 10
416.6000061035156
 20
385.4800109863281
 10
417.3199768066406
 20
385.0
 10
418.03997802734375
 20
384.760009765625
 10
418.8800048828125
 20
384.6400146484375
 10
419.7200012207031
 20
384.760009765625
 10
420.67999267578125
 20
384.8800048828125
 10
421.5199890136719
 20
385.239990234375
 10
422.3599853515625
 20
385.7200012207031
 10
423.0799865722656
 20
386.44000244140625
 10
423.67999267578125
 20
387.2799987792969
 10
424.1600036621094
 20
388.239990234375
 10
424.5199890136719
 20
389.44000244140625
  0
LWPOLYLINE
  5
E1
330
17
100
AcDbEntity
  8
0
 62
7
100
AcDbPolyline
 90
32
 70
0
 10
403.1600036621094
 20
389.08001708984375
 10
403.03997802734375
 20
390.0400085449219
 10
402.67999267578125
 20
390.8800048828125
 10
402.1999816894531
 20
391.4800109863281
 10
401.6000061035156
 20
392.08001708984375
 10
401.0
 20
392.44000244140625
 10
400.1600036621094
 20
392.67999267578125
 10
399.44000244140625
 20
392.79998779296875
 10
398.6000061035156
 20
392.67999267578125
 10
397.7599792480469
 20
392.55999755859375
 10
396.91998291015625
 20
392.20001220703125
 10
396.0799865722656
 20
391.7200012207031
 10
395.3599853515625
 20
391.1199951171875
 10
394.7599792480469
 20
390.2799987792969
 10
394.2799987792969
 20
389.44000244140625
 10
393.79998779296875
 20
388.3599853515625
 10
393.55999755859375
 20
387.1600036621094
 10
393.67999267578125
 20
386.20001220703125
 10
394.03997802734375
 20
385.3599853515625
 10
394.3999938964844
 20
384.6400146484375
 10
395.0
 20
384.0400085449219
 10
395.7200012207031
 20
383.67999267578125
 10
396.55999755859375
 20
383.44000244140625
 10
397.3999938964844
 20
383.32000732421875
 10
398.239990234375
 20
383.32000732421875
 10
399.0799865722656
 20
383.55999755859375
 10
399.91998291015625
 20
383.91998291015625
 10
400.7599792480469
 20
384.4000244140625
 10
401.47998046875
 20
385.1199951171875
 10
402.0799865722656
 20
385.96002197265625
 10
402.67999267578125
 20
386.91998291015625
 10
402.91998291015625
 20
388.0
  0
LWPOLYLINE
  5
E2
330
17
100
AcDbEntity
  8
0
 62
7
100
AcDbPolyline
 90
2
 70
0
 10
403.1600036621094
 20
388.0
 10
403.1600036621094
 20
390.0400085449219
  0
LWPOLYLINE
  5
E3
330
17
100
AcDbEntity
  8
0
 62
7
100
AcDbPolyline
 90
3
 70
0
 10
403.1600036621094
 20
390.0400085449219
 10
402.67999267578125
 20
389.44000244140625
 10
403.1600036621094
 20
389.32000732421875
  0
LWPOLYLINE
  5
E4
330
17
100
AcDbEntity
  8
0
 62
7
100
AcDbPolyline
 90
32
 70
0
 10
424.6399841308594
 20
357.4000244140625
 10
424.5199890136719
 20
358.239990234375
 10
424.1600036621094
 20
359.08001708984375
 10
423.79998779296875
 20
359.79998779296875
 10
423.1999816894531
 20
360.2799987792969
 10
422.47998046875
 20
360.6400146484375
 10
421.7599792480469
 20
360.8800048828125
 10
420.91998291015625
 20
361.0
 10
420.0799865722656
 20
361.0
 10
419.239990234375
 20
360.760009765625
 10
418.3999938964844
 20
360.4000244140625
 10
417.55999755859375
 20
359.91998291015625
 10
416.8399963378906
 20
359.32000732421875
 10
416.239990234375
 20
358.6000061035156
 10
415.7599792480469
 20
357.6400146484375
 10
415.3999938964844
 20
356.55999755859375
 10
415.1600036621094
 20
355.3599853515625
 10
415.2799987792969
 20
354.4000244140625
 10
415.5199890136719
 20
353.55999755859375
 10
416.0
 20
352.84002685546875
 10
416.6000061035156
 20
352.239990234375
 10
417.1999816894531
 20
351.8800048828125
 10
418.03997802734375
 20
351.6400146484375
 10
418.8800048828125
 20
351.52001953125
 10
419.7200012207031
 20
351.52001953125
 10
420.67999267578125
 20
351.760009765625
 10
421.5199890136719
 20
352.1199951171875
 10
422.239990234375
 20
352.6000061035156
 10
423.0799865722656
 20
353.32000732421875
 10
423.67999267578125
 20
354.1600036621094
 10
424.1600036621094
 20
355.1199951171875
 10
424.5199890136719
 20
356.32000732421875
  0
LWPOLYLINE
  5
E5
330
17
100
AcDbEntity
  8
0
 62
7
100
AcDbPolyline
 90
32
 70
0
 10
444.0799865722656
 20
375.6400146484375
 10
443.9599914550781
 20
376.6000061035156
 10
443.5999755859375
 20
377.44000244140625
 10
443.1199951171875
 20
378.0400085449219
 10
442.5199890136719
 20
378.52001953125
 10
441.79998779296875
 20
379.0
 10
441.0799865722656
 20
379.1199951171875
 10
440.239990234375
 20
379.239990234375
 10
439.3999938964844
 20
379.239990234375
 10
438.55999755859375
 20
379.0
 10
437.7200012207031
 20
378.6400146484375
 10
437.0
 20
378.1600036621094
 10
436.2799987792969
 20
377.55999755859375
 10
435.67999267578125
 20
376.8399963378906
 10
435.0799865722656
 20
375.8800048828125
 10
434.7200012207031
 20
374.79998779296875
 10
434.5999755859375
 20
373.7200012207031
 10
434.5999755859375
 20
372.6400146484375
 10
434.9599914550781
 20
371.79998779296875
 10
435.3199768066406
 20
371.08001708984375
 10
435.91998291015625
 20
370.6000061035156
 10
436.6399841308594
 20
370.1199951171875
 10
437.47998046875
 20
369.8800048828125
 10
438.3199768066406
 20
369.760009765625
 10
439.1600036621094
 20
369.8800048828125
 10
440.0
 20
370.0
 10
440.8399963378906
 20
370.3599853515625
 10
441.67999267578125
 20
370.96002197265625
 10
442.3999938964844
 20
371.55999755859375
 10
443.1199951171875
 20
372.4000244140625
 10
443.5999755859375
 20
373.3599853515625
 10
443.9599914550781
 20
374.55999755859375
  0
LWPOLYLINE
  5
E6
330
17
100
AcDbEntity
  8
0
 62
7
100
AcDbPolyline
 90
33
 70
0
 10
415.1600036621094
 20
375.6400146484375
 10
415.2799987792969
 20
376.6000061035156
 10
415.6399841308594
 20
377.44000244140625
 10
416.1199951171875
 20
378.0400085449219
 10
416.7200012207031
 20
378.6400146484375
 10
417.44000244140625
 20
379.0
 10
418.2799987792969
 20
379.239990234375
 10
419.1199951171875
 20
379.239990234375
 10
419.9599914550781
 20
379.239990234375
 10
420.79998779296875
 20
379.0
 10
421.6399841308594
 20
378.6400146484375
 10
422.3599853515625
 20
378.0400085449219
 10
423.0799865722656
 20
377.44000244140625
 10
423.67999267578125
 20
376.6000061035156
 10
424.1600036621094
 20
375.6400146484375
 10
424.5199890136719
 20
374.55999755859375
 10
424.6399841308594
 20
373.4800109863281
 10
424.5199890136719
 20
372.52001953125
 10
424.1600036621094
 20
371.67999267578125
 10
423.67999267578125
 20
370.96002197265625
 10
423.0799865722656
 20
370.4800109863281
 10
422.3599853515625
 20
370.1199951171875
 10
421.6399841308594
 20
369.8800048828125
 10
420.79998779296875
 20
369.760009765625
 10
419.9599914550781
 20
369.8800048828125
 10
419.0
 20
370.1199951171875
 10
418.2799987792969
 20
370.4800109863281
 10
417.44000244140625
 20
370.96002197265625
 10
416.7200012207031
 20
371.67999267578125
 10
416.1199951171875
 20
372.52001953125
 10
415.6399841308594
 20
373.4800109863281
 10
415.2799987792969
 20
374.55999755859375
 10
415.1600036621094
 20
374.55999755859375
  0
LWPOLYLINE
  5
E7
330
17
100
AcDbEntity
  8
0
 62
7
100
AcDbPolyline
 90
2
 70
0
 10
420.1999816894531
 20
369.2799987792969
 10
419.9599914550781
 20
367.96002197265625
  0
LWPOLYLINE
  5
E8
330
17
100
AcDbEntity
  8
0
 62
7
100
AcDbPolyline
 90
2
 70
0
 10
420.0799865722656
 20
368.79998779296875
 10
419.9599914550781
 20
368.08001708984375
  0
LWPOLYLINE
  5
E9
330
17
100
AcDbEntity
  8
0
 62
7
100
AcDbPolyline
 90
3
 70
0
 10
419.9599914550781
 20
368.79998779296875
 10
419.9599914550781
 20
369.2799987792969
 10
419.9599914550781
 20
369.760009765625
  0
LWPOLYLINE
  5
EA
330
17
100
AcDbEntity
  8
0
 62
7
100
AcDbPolyline
 90
3
 70
0
 10
354.55999755859375
 20
394.4800109863281
 10
353.1199951171875
 20
397.3599853515625
 10
351.67999267578125
 20
397.3599853515625
  0
LWPOLYLINE
  5
EB
330
17
100
AcDbEntity
  8
0
 62
7
100
AcDbPolyline
 90
2
 70
0
 10
353.1199951171875
 20
394.4800109863281
 10
353.1199951171875
 20
399.2799987792969
  0
LWPOLYLINE
  5
EC
330
17
100
AcDbEntity
  8
0
 62
7
100
AcDbPolyline
 90
9
 70
0
 10
350.7200012207031
 20
385.0
 10
355.5199890136719
 20
384.1600036621094
 10
355.2799987792969
 20
383.55999755859375
 10
354.67999267578125
 20
383.20001220703125
 10
353.9599914550781
 20
383.08001708984375
 10
353.1199951171875
 20
383.20001220703125
 10
352.2799987792969
 20
383.55999755859375
 10
351.55999755859375
 20
384.1600036621094
 10
350.9599914550781
 20
385.0
  0
LWPOLYLINE
  5
ED
330
17
100
AcDbEntity
  8
0
 62
7
100
AcDbPolyline
 90
32
 70
0
 10
491.8399963378906
 20
354.760009765625
 10
491.7200012207031
 20
355.7200012207031
 10
491.3599853515625
 20
356.55999755859375
 10
490.8799743652344
 20
357.2799987792969
 10
490.2799987792969
 20
357.760009765625
 10
489.67999267578125
 20
358.1199951171875
 10
488.8399963378906
 20
358.3599853515625
 10
488.1199951171875
 20
358.4800109863281
 10
487.2799987792969
 20
358.4800109863281
 10
486.44000244140625
 20
358.239990234375
 10
485.5999755859375
 20
357.8800048828125
 10
484.7599792480469
 20
357.4000244140625
 10
484.03997802734375
 20
356.79998779296875
 10
483.44000244140625
 20
356.08001708984375
 10
482.9599914550781
 20
355.1199951171875
 10
482.47998046875
 20
354.0400085449219
 10
482.3599853515625
 20
352.84002685546875
 10
482.3599853515625
 20
351.8800048828125
 10
482.7200012207031
 20
351.0400085449219
 10
483.1999816894531
 20
350.32000732421875
 10
483.67999267578125
 20
349.7200012207031
 10
484.3999938964844
 20
349.3599853515625
 10
485.239990234375
 20
349.1199951171875
 10
486.0799865722656
 20
349.0
 10
486.91998291015625
 20
349.0
 10
487.7599792480469
 20
349.239990234375
 10
488.5999755859375
 20
349.6000061035156
 10
489.44000244140625
 20
350.08001708984375
 10
490.1600036621094
 20
350.79998779296875
 10
490.8799743652344
 20
351.6400146484375
 10
491.3599853515625
 20
352.6000061035156
 10
491.7200012207031
 20
353.67999267578125
  0
LWPOLYLINE
  5
EE
330
17
100
AcDbEntity
  8
0
 62
7
100
AcDbPolyline
 90
2
 70
0
 10
491.8399963378906
 20
353.67999267578125
 10
491.8399963378906
 20
355.7200012207031
  0
LWPOLYLINE
  5
EF
330
17
100
AcDbEntity
  8
0
 62
7
100
AcDbPolyline
 90
9
 70
0
 10
500.47998046875
 20
406.3599853515625
 10
507.55999755859375
 20
406.3599853515625
 10
511.3999938964844
 20
401.91998291015625
 10
511.3999938964844
 20
401.91998291015625
 10
521.9599609375
 20
353.67999267578125
 10
521.9599609375
 20
353.67999267578125
 10
491.8399963378906
 20
355.7200012207031
 10
491.3599853515625
 20
355.1199951171875
 10
491.8399963378906
 20
355.7200012207031
  0
LWPOLYLINE
  5
F0
330
17
100
AcDbEntity
  8
0
 62
7
100
AcDbPolyline
 90
2
 70
0
 10
436.3999938964844
 20
431.32000732421875
 10
429.67999267578125
 20
422.44000244140625
  0
LWPOLYLINE
  5
F1
330
17
100
AcDbEntity
  8
0
 62
7
100
AcDbPolyline
 90
9
 70
0
 10
436.3999938964844
 20
433.7200012207031
 10
436.3999938964844
 20
433.4800109863281
 10
437.1199951171875
 20
433.0
 10
437.7200012207031
 20
432.2799987792969
 10
438.0799865722656
 20
431.32000732421875
 10
438.1999816894531
 20
430.4800109863281
 10
438.0799865722656
 20
429.760009765625
 10
437.7200012207031
 20
429.2799987792969
 10
437.1199951171875
 20
429.0400085449219
  0
LWPOLYLINE
  5
F2
330
17
100
AcDbEntity
  8
0
 62
7
100
AcDbPolyline
 90
32
 70
0
 10
342.79998779296875
 20
515.7999877929688
 10
342.67999267578125
 20
516.760009765625
 10
342.44000244140625
 20
517.47998046875
 10
341.9599914550781
 20
518.2000122070312
 10
341.3599853515625
 20
518.6799926757812
 10
340.6399841308594
 20
519.1599731445312
 10
339.91998291015625
 20
519.4000244140625
 10
339.0799865722656
 20
519.4000244140625
 10
338.239990234375
 20
519.4000244140625
 10
337.3999938964844
 20
519.1599731445312
 10
336.55999755859375
 20
518.9199829101562
 10
335.8399963378906
 20
518.4400024414062
 10
335.1199951171875
 20
517.719970703125
 10
334.3999938964844
 20
517.0
 10
333.91998291015625
 20
516.0399780273438
 10
333.55999755859375
 20
514.9600219726562
 10
333.32000732421875
 20
513.8800048828125
 10
333.44000244140625
 20
512.7999877929688
 10
333.67999267578125
 20
511.9599914550781
 10
334.1600036621094
 20
511.239990234375
 10
334.7599792480469
 20
510.760009765625
 10
335.47998046875
 20
510.2799987792969
 10
336.1999816894531
 20
510.0400085449219
 10
337.03997802734375
 20
509.9200134277344
 10
337.8800048828125
 20
510.0400085449219
 10
338.8399963378906
 20
510.1600036621094
 10
339.67999267578125
 20
510.5199890136719
 10
340.5199890136719
 20
511.1199951171875
 10
341.239990234375
 20
511.7200012207031
 10
341.8399963378906
 20
512.5599975585938
 10
342.32000732421875
 20
513.52001953125
 10
342.67999267578125
 20
514.719970703125
  0
LWPOLYLINE
  5
F3
330
17
100
AcDbEntity
  8
0
 62
7
100
AcDbPolyline
 90
4
 70
0
 10
274.0400085449219
 20
399.4000244140625
 10
269.239990234375
 20
399.4000244140625
 10
271.6399841308594
 20
405.0400085449219
 10
271.6399841308594
 20
391.4800109863281
  0
LWPOLYLINE
  5
F4
330
17
100
AcDbEntity
  8
0
 62
7
100
AcDbPolyline
 90
4
 70
0
 10
271.6399841308594
 20
399.4000244140625
 10
267.79998779296875
 20
396.52001953125
 10
267.79998779296875
 20
396.52001953125
 10
271.6399841308594
 20
397.47998046875
  0
LWPOLYLINE
  5
F5
330
17
100
AcDbEntity
  8
0
 62
7
100
AcDbPolyline
 90
8
 70
0
 10
269.239990234375
 20
398.55999755859375
 10
269.47998046875
 20
397.96002197265625
 10
269.9599914550781
 20
397.6000061035156
 10
270.79998779296875
 20
397.47998046875
 10
271.6399841308594
 20
397.6000061035156
 10
272.47998046875
 20
397.96002197265625
 10
273.1999816894531
 20
398.55999755859375
 10
273.79998779296875
 20
399.4000244140625
  0
LWPOLYLINE
  5
F6
330
17
100
AcDbEntity
  8
0
 62
7
100
AcDbPolyline
 90
32
 70
0
 10
253.39999389648438
 20
384.52001953125
 10
253.27999877929688
 20
385.4800109863281
 10
252.9199981689453
 20
386.32000732421875
 10
252.4399871826172
 20
386.91998291015625
 10
251.95999145507812
 20
387.52001953125
 10
251.239990234375
 20
387.8800048828125
 10
250.51998901367188
 20
388.1199951171875
 10
249.67999267578125
 20
388.239990234375
 10
248.83999633789062
 20
388.1199951171875
 10
248.0
 20
388.0
 10
247.1599884033203
 20
387.6400146484375
 10
246.3199920654297
 20
387.1600036621094
 10
245.59999084472656
 20
386.55999755859375
 10
245.0
 20
385.7200012207031
 10
244.51998901367188
 20
384.8800048828125
 10
244.1599884033203
 20
383.79998779296875
 10
243.9199981689453
 20
382.6000061035156
 10
244.0399932861328
 20
381.6400146484375
 10
244.27999877929688
 20
380.79998779296875
 10
244.75999450683594
 20
380.08001708984375
 10
245.239990234375
 20
379.4800109863281
 10
245.95999145507812
 20
379.1199951171875
 10
246.79998779296875
 20
378.760009765625
 10
247.63999938964844
 20
378.760009765625
 10
248.47999572753906
 20
378.760009765625
 10
249.3199920654297
 20
379.0
 10
250.27999877929688
 20
379.3599853515625
 10
251.0
 20
379.8399963378906
 10
251.72000122070312
 20
380.55999755859375
 10
252.4399871826172
 20
381.2799987792969
 10
252.9199981689453
 20
382.3599853515625
 10
253.27999877929688
 20
383.44000244140625
  0
LWPOLYLINE
  5
F7
330
17
100
AcDbEntity
  8
0
 62
7
100
AcDbPolyline
 90
32
 70
0
 10
103.87999725341797
 20
517.3599853515625
 10
103.75999450683594
 20
518.3200073242188
 10
103.4000015258789
 20
519.0399780273438
 10
102.91999816894531
 20
519.760009765625
 10
102.31999969482422
 20
520.239990234375
 10
101.5999984741211
 20
520.719970703125
 10
100.87999725341797
 20
520.9600219726562
 10
100.04000091552734
 20
520.9600219726562
 10
99.19999694824219
 20
520.9600219726562
 10
98.36000061035156
 20
520.8400268554688
 10
97.5199966430664
 20
520.47998046875
 10
96.79999542236328
 20
520.0
 10
96.08000183105469
 20
519.4000244140625
 10
95.47999572753906
 20
518.5599975585938
 10
94.87999725341797
 20
517.5999755859375
 10
94.5199966430664
 20
516.6400146484375
 10
94.27999877929688
 20
515.4400024414062
 10
94.4000015258789
 20
514.3599853515625
 10
94.75999450683594
 20
513.52001953125
 10
95.1199951171875
 20
512.7999877929688
 10
95.72000122070312
 20
512.3200073242188
 10
96.43999481201172
 20
511.8399963378906
 10
97.15999603271484
 20
511.6000061035156
 10
98.1199951171875
 20
511.4800109863281
 10
98.95999908447266
 20
511.6000061035156
 10
99.79999542236328
 20
511.7200012207031
 10
100.63999938964844
 20
512.0800170898438
 10
101.47999572753906
 20
512.6799926757812
 10
102.19999694824219
 20
513.280029296875
 10
102.79999542236328
 20
514.1199951171875
 10
103.4000015258789
 20
515.0800170898438
 10
103.63999938964844
 20
516.280029296875
  0
LWPOLYLINE
  5
F8
330
17
100
AcDbEntity
  8
0
 62
7
100
AcDbPolyline
 90
2
 70
0
 10
94.04000091552734
 20
516.760009765625
 10
94.27999877929688
 20
518.0800170898438
  0
LWPOLYLINE
  5
F9
330
17
100
AcDbEntity
  8
0
 62
7
100
AcDbPolyline
 90
2
 70
0
 10
94.15999603271484
 20
517.239990234375
 10
94.27999877929688
 20
517.8400268554688
  0
LWPOLYLINE
  5
FA
330
17
100
AcDbEntity
  8
0
 62
7
100
AcDbPolyline
 90
3
 70
0
 10
94.27999877929688
 20
517.239990234375
 10
94.27999877929688
 20
516.760009765625
 10
94.27999877929688
 20
516.280029296875
  0
LWPOLYLINE
  5
FB
330
17
100
AcDbEntity
  8
0
 62
7
100
AcDbPolyline
 90
7
 70
0
 10
148.16000366210938
 20
486.0400085449219
 10
148.16000366210938
 20
474.1600036621094
 10
148.16000366210938
 20
471.1600036621094
 10
151.16000366210938
 20
469.6000061035156
 10
149.72000122070312
 20
474.1600036621094
 10
145.16000366210938
 20
474.1600036621094
 10
151.16000366210938
 20
469.6000061035156
  0
LWPOLYLINE
  5
FC
330
17
100
AcDbEntity
  8
0
 62
7
100
AcDbPolyline
 90
10
 70
0
 10
486.55999755859375
 20
408.760009765625
 10
487.03997802734375
 20
408.52001953125
 10
487.5199890136719
 20
408.1600036621094
 10
487.7599792480469
 20
407.67999267578125
 10
487.6399841308594
 20
405.0400085449219
 10
486.3199768066406
 20
404.44000244140625
 10
486.1999816894531
 20
404.08001708984375
 10
486.44000244140625
 20
403.8399963378906
 10
486.91998291015625
 20
403.96002197265625
 10
487.3999938964844
 20
406.3599853515625
  0
LWPOLYLINE
  5
FD
330
17
100
AcDbEntity
  8
0
 62
7
100
AcDbPolyline
 90
4
 70
0
 10
486.44000244140625
 20
406.3599853515625
 10
476.47998046875
 20
407.79998779296875
 10
473.5999755859375
 20
404.91998291015625
 10
473.5999755859375
 20
406.3599853515625
  0
LWPOLYLINE
  5
FE
330
17
100
AcDbEntity
  8
0
 62
7
100
AcDbPolyline
 90
3
 70
0
 10
500.47998046875
 20
404.91998291015625
 10
500.47998046875
 20
406.3599853515625
 10
497.5999755859375
 20
407.79998779296875
  0
LWPOLYLINE
  5
FF
330
17
100
AcDbEntity
  8
0
 62
7
100
AcDbPolyline
 90
2
 70
0
 10
497.5999755859375
 20
386.91998291015625
 10
497.5999755859375
 20
403.47998046875
  0
LWPOLYLINE
  5
100
330
17
100
AcDbEntity
  8
0
 62
7
100
AcDbPolyline
 90
8
 70
0
 10
487.5199890136719
 20
364.6000061035156
 10
487.3999938964844
 20
364.7200012207031
 10
487.03997802734375
 20
364.6000061035156
 10
486.79998779296875
 20
364.239990234375
 10
486.55999755859375
 20
363.8800048828125
 10
486.79998779296875
 20
363.760009765625
 10
487.03997802734375
 20
363.8800048828125
 10
487.3999938964844
 20
364.239990234375
  0
LWPOLYLINE
  5
101
330
17
100
AcDbEntity
  8
0
 62
7
100
AcDbPolyline
 90
11
 70
0
 10
487.3999938964844
 20
364.3599853515625
 10
487.2799987792969
 20
364.4800109863281
 10
487.1600036621094
 20
364.4800109863281
 10
487.03997802734375
 20
364.4800109863281
 10
486.91998291015625
 20
364.3599853515625
 10
486.79998779296875
 20
364.239990234375
 10
486.79998779296875
 20
364.0
 10
486.91998291015625
 20
364.0
 10
487.03997802734375
 20
364.0
 10
487.1600036621094
 20
364.1199951171875
 10
487.2799987792969
 20
364.239990234375
  0
LWPOLYLINE
  5
102
330
17
100
AcDbEntity
  8
0
 62
7
100
AcDbPolyline
 90
3
 70
0
 10
487.3999938964844
 20
361.3599853515625
 10
488.47998046875
 20
361.3599853515625
 10
485.5999755859375
 20
363.6400146484375
  0
LWPOLYLINE
  5
103
330
17
100
AcDbEntity
  8
0
 62
7
100
AcDbPolyline
 90
3
 70
0
 10
487.3999938964844
 20
367.1199951171875
 10
488.47998046875
 20
367.1199951171875
 10
485.5999755859375
 20
364.96002197265625
  0
LWPOLYLINE
  5
104
330
17
100
AcDbEntity
  8
0
 62
7
100
AcDbPolyline
 90
10
 70
0
 10
487.7599792480469
 20
364.7200012207031
 10
487.6399841308594
 20
364.96002197265625
 10
487.1600036621094
 20
364.84002685546875
 10
486.67999267578125
 20
364.3599853515625
 10
486.44000244140625
 20
364.0
 10
486.44000244140625
 20
363.760009765625
 10
486.55999755859375
 20
363.52001953125
 10
487.03997802734375
 20
363.6400146484375
 10
487.5199890136719
 20
363.8800048828125
 10
487.7599792480469
 20
364.239990234375
  0
LWPOLYLINE
  5
105
330
17
100
AcDbEntity
  8
0
 62
7
100
AcDbPolyline
 90
8
 70
0
 10
487.5199890136719
 20
415.3599853515625
 10
487.3999938964844
 20
415.47998046875
 10
487.03997802734375
 20
415.3599853515625
 10
486.79998779296875
 20
414.8800048828125
 10
486.55999755859375
 20
414.6400146484375
 10
486.79998779296875
 20
414.52001953125
 10
487.03997802734375
 20
414.6400146484375
 10
487.3999938964844
 20
414.8800048828125
  0
LWPOLYLINE
  5
106
330
17
100
AcDbEntity
  8
0
 62
7
100
AcDbPolyline
 90
11
 70
0
 10
487.3999938964844
 20
415.1199951171875
 10
487.2799987792969
 20
415.239990234375
 10
487.1600036621094
 20
415.239990234375
 10
487.03997802734375
 20
415.1199951171875
 10
486.91998291015625
 20
415.0
 10
486.79998779296875
 20
414.8800048828125
 10
486.79998779296875
 20
414.760009765625
 10
486.91998291015625
 20
414.760009765625
 10
487.03997802734375
 20
414.760009765625
 10
487.1600036621094
 20
414.8800048828125
 10
487.2799987792969
 20
415.0
  0
LWPOLYLINE
  5
107
330
17
100
AcDbEntity
  8
0
 62
7
100
AcDbPolyline
 90
3
 70
0
 10
487.3999938964844
 20
412.1199951171875
 10
488.47998046875
 20
412.1199951171875
 10
485.5999755859375
 20
414.2799987792969
  0
LWPOLYLINE
  5
108
330
17
100
AcDbEntity
  8
0
 62
7
100
AcDbPolyline
 90
3
 70
0
 10
487.3999938964844
 20
417.760009765625
 10
488.47998046875
 20
417.760009765625
 10
485.5999755859375
 20
415.6000061035156
  0
LWPOLYLINE
  5
109
330
17
100
AcDbEntity
  8
0
 62
7
100
AcDbPolyline
 90
6
 70
0
 10
486.44000244140625
 20
414.760009765625
 10
486.44000244140625
 20
414.52001953125
 10
486.55999755859375
 20
414.2799987792969
 10
487.03997802734375
 20
414.4000244140625
 10
487.5199890136719
 20
414.6400146484375
 10
487.7599792480469
 20
414.8800048828125
  0
LWPOLYLINE
  5
10A
330
17
100
AcDbEntity
  8
0
 62
7
100
AcDbPolyline
 90
2
 70
0
 10
497.5999755859375
 20
424.4800109863281
 10
497.5999755859375
 20
409.239990234375
  0
LWPOLYLINE
  5
10B
330
17
100
AcDbEntity
  8
0
 62
7
100
AcDbPolyline
 90
3
 70
0
 10
476.47998046875
 20
386.44000244140625
 10
476.47998046875
 20
392.67999267578125
 10
476.47998046875
 20
403.47998046875
  0
LWPOLYLINE
  5
10C
330
17
100
AcDbEntity
  8
0
 62
7
100
AcDbPolyline
 90
3
 70
0
 10
476.47998046875
 20
424.9599914550781
 10
476.47998046875
 20
418.47998046875
 10
476.47998046875
 20
409.1199951171875
  0
LWPOLYLINE
  5
10D
330
17
100
AcDbEntity
  8
0
 62
7
100
AcDbPolyline
 90
3
 70
0
 10
148.16000366210938
 20
471.1600036621094
 10
145.16000366210938
 20
469.6000061035156
 10
146.72000122070312
 20
474.1600036621094
  0
LWPOLYLINE
  5
10E
330
17
100
AcDbEntity
  8
0
 62
7
100
AcDbPolyline
 90
8
 70
0
 10
145.16000366210938
 20
469.6000061035156
 10
145.16000366210938
 20
474.1600036621094
 10
149.72000122070312
 20
472.6000061035156
 10
151.16000366210938
 20
469.6000061035156
 10
148.16000366210938
 20
472.6000061035156
 10
145.16000366210938
 20
474.1600036621094
 10
146.72000122070312
 20
469.6000061035156
 10
151.16000366210938
 20
469.6000061035156
  0
LWPOLYLINE
  5
10F
330
17
100
AcDbEntity
  8
0
 62
7
100
AcDbPolyline
 90
4
 70
0
 10
195.3199920654297
 20
474.3999938964844
 10
196.1599884033203
 20
474.3999938964844
 10
199.87998962402344
 20
474.3999938964844
 10
207.0800018310547
 20
470.08001708984375
  0
LWPOLYLINE
  5
110
330
17
100
AcDbEntity
  8
0
 62
7
100
AcDbPolyline
 90
3
 70
0
 10
217.87998962402344
 20
486.0400085449219
 10
217.87998962402344
 20
467.20001220703125
 10
217.87998962402344
 20
467.20001220703125
  0
LWPOLYLINE
  5
111
330
17
100
AcDbEntity
  8
0
 62
7
100
AcDbPolyline
 90
3
 70
0
 10
226.39999389648438
 20
486.0400085449219
 10
226.39999389648438
 20
466.8399963378906
 10
226.39999389648438
 20
466.8399963378906
  0
LWPOLYLINE
  5
112
330
17
100
AcDbEntity
  8
0
 62
7
100
AcDbPolyline
 90
4
 70
0
 10
249.55999755859375
 20
474.3999938964844
 10
248.59999084472656
 20
474.3999938964844
 10
244.51998901367188
 20
474.3999938964844
 10
237.44000244140625
 20
469.7200012207031
  0
LWPOLYLINE
  5
113
330
17
100
AcDbEntity
  8
0
 62
7
100
AcDbPolyline
 90
2
 70
0
 10
269.5999755859375
 20
348.1600036621094
 10
268.6400146484375
 20
348.1600036621094
  0
LWPOLYLINE
  5
114
330
17
100
AcDbEntity
  8
0
 62
7
100
AcDbPolyline
 90
2
 70
0
 10
362.6000061035156
 20
348.1600036621094
 10
363.55999755859375
 20
348.1600036621094
  0
LWPOLYLINE
  5
115
330
17
100
AcDbEntity
  8
0
 62
7
100
AcDbPolyline
 90
3
 70
0
 10
372.67999267578125
 20
351.1600036621094
 10
372.67999267578125
 20
348.1600036621094
 10
372.67999267578125
 20
348.1600036621094
  0
LWPOLYLINE
  5
116
330
17
100
AcDbEntity
  8
0
 62
7
100
AcDbPolyline
 90
3
 70
0
 10
372.67999267578125
 20
359.67999267578125
 10
372.67999267578125
 20
362.79998779296875
 10
372.67999267578125
 20
363.760009765625
  0
LWPOLYLINE
  5
117
330
17
100
AcDbEntity
  8
0
 62
7
100
AcDbPolyline
 90
3
 70
0
 10
372.67999267578125
 20
365.67999267578125
 10
372.67999267578125
 20
394.4800109863281
 10
372.67999267578125
 20
394.4800109863281
  0
LWPOLYLINE
  5
118
330
17
100
AcDbEntity
  8
0
 62
7
100
AcDbPolyline
 90
2
 70
0
 10
422.239990234375
 20
486.0400085449219
 10
422.239990234375
 20
433.4800109863281
  0
LWPOLYLINE
  5
119
330
17
100
AcDbEntity
  8
0
 62
7
100
AcDbPolyline
 90
2
 70
0
 10
429.67999267578125
 20
486.0400085449219
 10
429.67999267578125
 20
434.20001220703125
  0
LWPOLYLINE
  5
11A
330
17
100
AcDbEntity
  8
0
 62
7
100
AcDbPolyline
 90
2
 70
0
 10
467.8399963378906
 20
412.239990234375
 10
467.8399963378906
 20
402.0400085449219
  0
LWPOLYLINE
  5
11B
330
17
100
AcDbEntity
  8
0
 62
7
100
AcDbPolyline
 90
3
 70
0
 10
467.8399963378906
 20
415.1199951171875
 10
467.8399963378906
 20
418.47998046875
 10
467.8399963378906
 20
418.47998046875
  0
LWPOLYLINE
  5
11C
330
17
100
AcDbEntity
  8
0
 62
7
100
AcDbPolyline
 90
9
 70
0
 10
245.95999145507812
 20
414.8800048828125
 10
243.0800018310547
 20
409.1199951171875
 10
245.95999145507812
 20
409.7200012207031
 10
245.59999084472656
 20
410.67999267578125
 10
244.75999450683594
 20
411.0400085449219
 10
245.36000061035156
 20
410.32000732421875
 10
245.47999572753906
 20
409.7200012207031
 10
245.72000122070312
 20
409.1199951171875
 10
245.95999145507812
 20
409.1199951171875
  0
LWPOLYLINE
  5
11D
330
17
100
AcDbEntity
  8
0
 62
7
100
AcDbPolyline
 90
10
 70
0
 10
201.3199920654297
 20
414.8800048828125
 10
198.44000244140625
 20
409.1199951171875
 10
201.3199920654297
 20
409.7200012207031
 10
200.95999145507812
 20
410.20001220703125
 10
200.59999084472656
 20
410.67999267578125
 10
200.1199951171875
 20
411.0400085449219
 10
200.72000122070312
 20
410.32000732421875
 10
200.83999633789062
 20
409.7200012207031
 10
201.0800018310547
 20
409.1199951171875
 10
201.3199920654297
 20
409.1199951171875
  0
LWPOLYLINE
  5
11E
330
17
100
AcDbEntity
  8
0
 62
7
100
AcDbPolyline
 90
6
 70
0
 10
256.8800048828125
 20
405.0400085449219
 10
255.9199981689453
 20
405.0400085449219
 10
252.1999969482422
 20
394.4800109863281
 10
252.1999969482422
 20
394.4800109863281
 10
259.760009765625
 20
365.67999267578125
 10
259.760009765625
 20
364.7200012207031
  0
LWPOLYLINE
  5
11F
330
17
100
AcDbEntity
  8
0
 62
7
100
AcDbPolyline
 90
2
 70
0
 10
263.5999755859375
 20
405.0400085449219
 10
264.44000244140625
 20
405.0400085449219
  0
LWPOLYLINE
  5
120
330
17
100
AcDbEntity
  8
0
 62
7
100
AcDbPolyline
 90
3
 70
0
 10
259.760009765625
 20
351.52001953125
 10
259.760009765625
 20
348.1600036621094
 10
259.760009765625
 20
348.1600036621094
  0
LWPOLYLINE
  5
121
330
17
100
AcDbEntity
  8
0
 62
7
100
AcDbPolyline
 90
3
 70
0
 10
259.760009765625
 20
360.1600036621094
 10
259.760009765625
 20
362.79998779296875
 10
259.760009765625
 20
363.760009765625
  0
LWPOLYLINE
  5
122
330
17
100
AcDbEntity
  8
0
 62
7
100
AcDbPolyline
 90
2
 70
0
 10
612.9199829101562
 20
502.9599914550781
 10
609.6799926757812
 20
519.1599731445312
  0
LWPOLYLINE
  5
123
330
17
100
AcDbEntity
  8
0
 62
7
100
AcDbPolyline
 90
16
 70
0
 10
351.67999267578125
 20
506.32000732421875
 10
351.44000244140625
 20
506.79998779296875
 10
351.0799865722656
 20
507.1600036621094
 10
350.6000061035156
 20
507.1600036621094
 10
350.1199951171875
 20
507.1600036621094
 10
349.5199890136719
 20
506.79998779296875
 10
349.03997802734375
 20
506.32000732421875
 10
348.67999267578125
 20
505.7200012207031
 10
348.55999755859375
 20
505.0
 10
348.67999267578125
 20
504.5199890136719
 10
349.03997802734375
 20
504.2799987792969
 10
349.5199890136719
 20
504.1600036621094
 10
350.1199951171875
 20
504.2799987792969
 10
350.7200012207031
 20
504.6400146484375
 10
351.1999816894531
 20
505.1199951171875
 10
351.55999755859375
 20
505.7200012207031
  0
LWPOLYLINE
  5
124
330
17
100
AcDbEntity
  8
0
 62
7
100
AcDbPolyline
 90
2
 70
0
 10
345.0799865722656
 20
389.08001708984375
 10
350.239990234375
 20
389.55999755859375
  0
LWPOLYLINE
  5
125
330
17
100
AcDbEntity
  8
0
 62
7
100
AcDbPolyline
 90
3
 70
0
 10
350.239990234375
 20
388.6000061035156
 10
348.1999816894531
 20
389.08001708984375
 10
348.79998779296875
 20
389.08001708984375
  0
LWPOLYLINE
  5
126
330
17
100
AcDbEntity
  8
0
 62
7
100
AcDbPolyline
 90
8
 70
0
 10
470.47998046875
 20
432.52001953125
 10
470.8399963378906
 20
432.1600036621094
 10
470.9599914550781
 20
431.79998779296875
 10
470.9599914550781
 20
431.32000732421875
 10
470.8399963378906
 20
430.9599914550781
 10
470.7200012207031
 20
430.6000061035156
 10
470.7200012207031
 20
430.239990234375
 10
470.9599914550781
 20
430.0
  0
LWPOLYLINE
  5
127
330
17
100
AcDbEntity
  8
0
 62
7
100
AcDbPolyline
 90
4
 70
0
 10
501.79998779296875
 20
430.239990234375
 10
501.44000244140625
 20
430.6000061035156
 10
501.1999816894531
 20
430.9599914550781
 10
501.1999816894531
 20
431.32000732421875
  0
LWPOLYLINE
  5
128
330
17
100
AcDbEntity
  8
0
 62
7
100
AcDbPolyline
 90
8
 70
0
 10
507.55999755859375
 20
431.32000732421875
 10
507.55999755859375
 20
431.32000732421875
 10
501.3199768066406
 20
431.67999267578125
 10
501.44000244140625
 20
431.9200134277344
 10
501.44000244140625
 20
432.1600036621094
 10
501.44000244140625
 20
432.3999938964844
 10
501.3199768066406
 20
432.6400146484375
 10
501.1999816894531
 20
432.760009765625
  0
LWPOLYLINE
  5
129
330
17
100
AcDbEntity
  8
0
 62
7
100
AcDbPolyline
 90
5
 70
0
 10
476.7200012207031
 20
133.60000610351562
 10
707.719970703125
 20
254.20001220703125
 10
707.719970703125
 20
254.20001220703125
 10
646.6400146484375
 20
307.0
 10
646.6400146484375
 20
409.3599853515625
  0
LWPOLYLINE
  5
12A
330
17
100
AcDbEntity
  8
0
 62
7
100
AcDbPolyline
 90
4
 70
0
 10
565.760009765625
 20
409.3599853515625
 10
612.4400024414062
 20
420.760009765625
 10
612.4400024414062
 20
420.760009765625
 10
645.9199829101562
 20
409.1199951171875
  0
LWPOLYLINE
  5
12B
330
17
100
AcDbEntity
  8
0
 62
7
100
AcDbPolyline
 90
4
 70
0
 10
563.0
 20
490.3599853515625
 10
561.9199829101562
 20
487.9599914550781
 10
561.3200073242188
 20
487.9599914550781
 10
562.5199584960938
 20
490.3599853515625
  0
LWPOLYLINE
  5
12C
330
17
100
AcDbEntity
  8
0
 62
7
100
AcDbPolyline
 90
3
 70
0
 10
511.3999938964844
 20
406.3599853515625
 10
527.3599853515625
 20
406.3599853515625
 10
527.239990234375
 20
408.760009765625
  0
LWPOLYLINE
  5
12D
330
17
100
AcDbEntity
  8
0
 62
7
100
AcDbPolyline
 90
2
 70
0
 10
527.239990234375
 20
417.52001953125
 10
527.239990234375
 20
436.0
  0
LWPOLYLINE
  5
12E
330
17
100
AcDbEntity
  8
0
 62
7
100
AcDbPolyline
 90
2
 70
0
 10
358.3999938964844
 20
465.760009765625
 10
360.79998779296875
 20
465.760009765625
  0
LWPOLYLINE
  5
12F
330
17
100
AcDbEntity
  8
0
 62
7
100
AcDbPolyline
 90
2
 70
0
 10
111.07999420166016
 20
508.0
 10
109.5199966430664
 20
509.08001708984375
  0
LWPOLYLINE
  5
130
330
17
100
AcDbEntity
  8
0
 62
7
100
AcDbPolyline
 90
2
 70
0
 10
109.5199966430664
 20
516.280029296875
 10
109.5199966430664
 20
516.280029296875
  0
LWPOLYLINE
  5
131
330
17
100
AcDbEntity
  8
0
 62
7
100
AcDbPolyline
 90
2
 70
0
 10
107.72000122070312
 20
530.4400024414062
 10
109.5199966430664
 20
529.3599853515625
  0
LWPOLYLINE
  5
132
330
17
100
AcDbEntity
  8
0
 62
7
100
AcDbPolyline
 90
2
 70
0
 10
109.5199966430664
 20
521.4400024414062
 10
109.5199966430664
 20
524.0800170898438
  0
LWPOLYLINE
  5
133
330
17
100
AcDbEntity
  8
0
 62
7
100
AcDbPolyline
 90
2
 70
0
 10
109.5199966430664
 20
543.4000244140625
 10
109.5199966430664
 20
543.4000244140625
  0
LWPOLYLINE
  5
134
330
17
100
AcDbEntity
  8
0
 62
7
100
AcDbPolyline
 90
2
 70
0
 10
360.44000244140625
 20
543.4000244140625
 10
360.55999755859375
 20
543.4000244140625
  0
LWPOLYLINE
  5
135
330
17
100
AcDbEntity
  8
0
 62
7
100
AcDbPolyline
 90
2
 70
0
 10
592.8800048828125
 20
543.4000244140625
 10
594.9199829101562
 20
543.4000244140625
  0
LWPOLYLINE
  5
136
330
17
100
AcDbEntity
  8
0
 62
7
100
AcDbPolyline
 90
2
 70
0
 10
630.3200073242188
 20
543.4000244140625
 10
632.9599609375
 20
543.4000244140625
  0
LWPOLYLINE
  5
137
330
17
100
AcDbEntity
  8
0
 62
7
100
AcDbPolyline
 90
2
 70
0
 10
644.719970703125
 20
543.4000244140625
 10
645.0799560546875
 20
541.1199951171875
  0
LWPOLYLINE
  5
138
330
17
100
AcDbEntity
  8
0
 62
7
100
AcDbPolyline
 90
2
 70
0
 10
594.9199829101562
 20
523.1199951171875
 10
594.9199829101562
 20
525.760009765625
  0
LWPOLYLINE
  5
139
330
17
100
AcDbEntity
  8
0
 62
7
100
AcDbPolyline
 90
2
 70
0
 10
244.51998901367188
 20
421.3599853515625
 10
244.51998901367188
 20
421.3599853515625
  0
LWPOLYLINE
  5
13A
330
17
100
AcDbEntity
  8
0
 62
7
100
AcDbPolyline
 90
3
 70
0
 10
482.3599853515625
 20
353.67999267578125
 10
462.67999267578125
 20
406.3599853515625
 10
462.67999267578125
 20
406.3599853515625
  0
LWPOLYLINE
  5
13B
330
17
100
AcDbEntity
  8
0
 62
7
100
AcDbPolyline
 90
4
 70
0
 10
487.03997802734375
 20
346.84002685546875
 10
487.03997802734375
 20
346.84002685546875
 10
439.2799987792969
 20
356.32000732421875
 10
439.2799987792969
 20
369.760009765625
  0
LWPOLYLINE
  5
13C
330
17
100
AcDbEntity
  8
0
 62
7
100
AcDbPolyline
 90
2
 70
0
 10
429.67999267578125
 20
406.3599853515625
 10
429.67999267578125
 20
406.3599853515625
  0
LWPOLYLINE
  5
13D
330
17
100
AcDbEntity
  8
0
 62
7
100
AcDbPolyline
 90
3
 70
0
 10
422.239990234375
 20
423.52001953125
 10
422.239990234375
 20
423.52001953125
 10
429.67999267578125
 20
418.7200012207031
  0
LWPOLYLINE
  5
13E
330
17
100
AcDbEntity
  8
0
 62
7
100
AcDbPolyline
 90
2
 70
0
 10
476.47998046875
 20
392.67999267578125
 10
467.8399963378906
 20
396.2799987792969
  0
LWPOLYLINE
  5
13F
330
17
100
AcDbEntity
  8
0
 62
7
100
AcDbPolyline
 90
3
 70
0
 10
353.1199951171875
 20
406.3599853515625
 10
353.1199951171875
 20
406.3599853515625
 10
419.9599914550781
 20
406.3599853515625
  0
LWPOLYLINE
  5
140
330
17
100
AcDbEntity
  8
0
 62
7
100
AcDbPolyline
 90
3
 70
0
 10
244.51998901367188
 20
394.4800109863281
 10
244.51998901367188
 20
394.4800109863281
 10
199.87998962402344
 20
403.3599853515625
  0
LWPOLYLINE
  5
141
330
17
100
AcDbEntity
  8
0
 62
7
100
AcDbPolyline
 90
2
 70
0
 10
199.87998962402344
 20
421.7200012207031
 10
199.87998962402344
 20
414.8800048828125
  0
LWPOLYLINE
  5
142
330
17
100
AcDbEntity
  8
0
 62
7
100
AcDbPolyline
 90
4
 70
0
 10
274.5199890136719
 20
405.0400085449219
 10
297.55999755859375
 20
405.6400146484375
 10
295.1600036621094
 20
404.44000244140625
 10
295.1600036621094
 20
405.0400085449219
  0
LWPOLYLINE
  5
143
330
17
100
AcDbEntity
  8
0
 62
7
100
AcDbPolyline
 90
2
 70
0
 10
252.1999969482422
 20
412.3599853515625
 10
252.1999969482422
 20
412.3599853515625
  0
LWPOLYLINE
  5
144
330
17
100
AcDbEntity
  8
0
 62
7
100
AcDbPolyline
 90
4
 70
0
 10
274.5199890136719
 20
412.3599853515625
 10
297.55999755859375
 20
412.96002197265625
 10
295.1600036621094
 20
411.760009765625
 10
295.1600036621094
 20
412.3599853515625
  0
LWPOLYLINE
  5
145
330
17
100
AcDbEntity
  8
0
 62
7
100
AcDbPolyline
 90
5
 70
0
 10
244.51998901367188
 20
396.8800048828125
 10
243.9199981689453
 20
396.8800048828125
 10
245.1199951171875
 20
394.4800109863281
 10
244.51998901367188
 20
394.4800109863281
 10
248.59999084472656
 20
394.4800109863281
  0
LWPOLYLINE
  5
146
330
17
100
AcDbEntity
  8
0
 62
7
100
AcDbPolyline
 90
3
 70
0
 10
612.4400024414062
 20
420.760009765625
 10
558.3200073242188
 20
406.3599853515625
 10
558.3200073242188
 20
406.3599853515625
  0
LWPOLYLINE
  5
147
330
17
100
AcDbEntity
  8
0
 62
7
100
AcDbPolyline
 90
4
 70
0
 10
353.1199951171875
 20
381.8800048828125
 10
353.1199951171875
 20
381.8800048828125
 10
348.32000732421875
 20
387.1600036621094
 10
348.32000732421875
 20
387.1600036621094
  0
LWPOLYLINE
  5
148
330
17
100
AcDbEntity
  8
0
 62
7
100
AcDbPolyline
 90
3
 70
0
 10
329.9599914550781
 20
504.3999938964844
 10
331.03997802734375
 20
507.6400146484375
 10
331.03997802734375
 20
511.3599853515625
  0
LWPOLYLINE
  5
149
330
17
100
AcDbEntity
  8
0
 62
7
100
AcDbPolyline
 90
32
 70
0
 10
567.6799926757812
 20
395.55999755859375
 10
567.4400024414062
 20
396.52001953125
 10
567.0800170898438
 20
397.3599853515625
 10
566.719970703125
 20
397.96002197265625
 10
566.1199951171875
 20
398.55999755859375
 10
565.3999633789062
 20
398.91998291015625
 10
564.5599975585938
 20
399.1600036621094
 10
563.8399658203125
 20
399.1600036621094
 10
563.0
 20
399.1600036621094
 10
562.1599731445312
 20
398.91998291015625
 10
561.3200073242188
 20
398.67999267578125
 10
560.47998046875
 20
398.20001220703125
 10
559.760009765625
 20
397.47998046875
 10
559.1599731445312
 20
396.760009765625
 10
558.6799926757812
 20
395.79998779296875
 10
558.3200073242188
 20
394.7200012207031
 10
558.0800170898438
 20
393.6400146484375
 10
558.2000122070312
 20
392.55999755859375
 10
558.4400024414062
 20
391.7200012207031
 10
558.9199829101562
 20
391.0
 10
559.5199584960938
 20
390.52001953125
 10
560.239990234375
 20
390.0400085449219
 10
560.9599609375
 20
389.79998779296875
 10
561.7999877929688
 20
389.67999267578125
 10
562.6400146484375
 20
389.79998779296875
 10
563.5999755859375
 20
389.91998291015625
 10
564.4400024414062
 20
390.2799987792969
 10
565.2799682617188
 20
390.8800048828125
 10
566.0
 20
391.4800109863281
 10
566.5999755859375
 20
392.32000732421875
 10
567.0800170898438
 20
393.2799987792969
 10
567.4400024414062
 20
394.4800109863281
  0
LWPOLYLINE
  5
14A
330
17
100
AcDbEntity
  8
0
 62
7
100
AcDbPolyline
 90
32
 70
0
 10
242.1199951171875
 20
453.6400146484375
 10
242.0
 20
454.6000061035156
 10
241.75999450683594
 20
455.32000732421875
 10
241.27999877929688
 20
456.0400085449219
 10
240.67999267578125
 20
456.52001953125
 10
239.95999145507812
 20
456.8800048828125
 10
239.239990234375
 20
457.1199951171875
 10
238.39999389648438
 20
457.239990234375
 10
237.55999755859375
 20
457.239990234375
 10
236.72000122070312
 20
457.0
 10
235.87998962402344
 20
456.760009765625
 10
235.1599884033203
 20
456.2799987792969
 10
234.44000244140625
 20
455.55999755859375
 10
233.72000122070312
 20
454.8399963378906
 10
233.239990234375
 20
453.8800048828125
 10
232.87998962402344
 20
452.79998779296875
 10
232.63999938964844
 20
451.7200012207031
 10
232.75999450683594
 20
450.6400146484375
 10
233.0
 20
449.79998779296875
 10
233.47999572753906
 20
449.08001708984375
 10
234.0800018310547
 20
448.6000061035156
 10
234.79998779296875
 20
448.1199951171875
 10
235.51998901367188
 20
447.8800048828125
 10
236.36000061035156
 20
447.760009765625
 10
237.1999969482422
 20
447.8800048828125
 10
238.1599884033203
 20
448.0
 10
239.0
 20
448.3599853515625
 10
239.83999633789062
 20
448.9599914550781
 10
240.55999755859375
 20
449.55999755859375
 10
241.1599884033203
 20
450.3999938964844
 10
241.63999938964844
 20
451.3599853515625
 10
242.0
 20
452.55999755859375
  0
LWPOLYLINE
  5
14B
330
17
100
AcDbEntity
  8
0
 62
7
100
AcDbPolyline
 90
32
 70
0
 10
211.87998962402344
 20
453.760009765625
 10
211.75999450683594
 20
454.7200012207031
 10
211.39999389648438
 20
455.55999755859375
 10
210.9199981689453
 20
456.1600036621094
 10
210.3199920654297
 20
456.6400146484375
 10
209.72000122070312
 20
457.1199951171875
 10
208.87998962402344
 20
457.3599853515625
 10
208.1599884033203
 20
457.4800109863281
 10
207.3199920654297
 20
457.3599853515625
 10
206.47999572753906
 20
457.239990234375
 10
205.63999938964844
 20
456.8800048828125
 10
204.8000030517578
 20
456.3999938964844
 10
204.0800018310547
 20
455.79998779296875
 10
203.47999572753906
 20
454.9599914550781
 10
203.0
 20
454.1199951171875
 10
202.51998901367188
 20
453.0400085449219
 10
202.39999389648438
 20
451.8399963378906
 10
202.39999389648438
 20
450.8800048828125
 10
202.75999450683594
 20
449.9200134277344
 10
203.1199951171875
 20
449.32000732421875
 10
203.72000122070312
 20
448.7200012207031
 10
204.44000244140625
 20
448.239990234375
 10
205.27999877929688
 20
448.0
 10
206.1199951171875
 20
447.8800048828125
 10
206.95999145507812
 20
448.0
 10
207.8000030517578
 20
448.239990234375
 10
208.63999938964844
 20
448.6000061035156
 10
209.47999572753906
 20
449.08001708984375
 10
210.1999969482422
 20
449.67999267578125
 10
210.8000030517578
 20
450.52001953125
 10
211.39999389648438
 20
451.6000061035156
 10
211.75999450683594
 20
452.67999267578125
  0
LWPOLYLINE
  5
14C
330
17
100
AcDbEntity
  8
0
 62
7
100
AcDbPolyline
 90
3
 70
0
 10
372.0799865722656
 20
378.4000244140625
 10
373.2799987792969
 20
380.67999267578125
 10
372.67999267578125
 20
378.4000244140625
  0
LWPOLYLINE
  5
14D
330
17
100
AcDbEntity
  8
0
 62
7
100
AcDbPolyline
 90
3
 70
0
 10
353.7200012207031
 20
403.6000061035156
 10
352.5199890136719
 20
406.0
 10
353.1199951171875
 20
403.6000061035156
  0
LWPOLYLINE
  5
14E
330
17
100
AcDbEntity
  8
0
 62
7
100
AcDbPolyline
 90
32
 70
0
 10
445.03997802734375
 20
419.9200134277344
 10
444.91998291015625
 20
420.8800048828125
 10
444.55999755859375
 20
421.6000061035156
 10
444.1999816894531
 20
422.32000732421875
 10
443.5999755859375
 20
422.79998779296875
 10
442.8800048828125
 20
423.2799987792969
 10
442.1600036621094
 20
423.52001953125
 10
441.3199768066406
 20
423.52001953125
 10
440.47998046875
 20
423.52001953125
 10
439.6399841308594
 20
423.3999938964844
 10
438.79998779296875
 20
423.0400085449219
 10
437.9599914550781
 20
422.55999755859375
 10
437.239990234375
 20
421.9599914550781
 10
436.6399841308594
 20
421.1199951171875
 10
436.1600036621094
 20
420.1600036621094
 10
435.79998779296875
 20
419.08001708984375
 10
435.55999755859375
 20
418.0
 10
435.67999267578125
 20
416.91998291015625
 10
435.91998291015625
 20
416.08001708984375
 10
436.3999938964844
 20
415.3599853515625
 10
437.0
 20
414.8800048828125
 10
437.5999755859375
 20
414.4000244140625
 10
438.44000244140625
 20
414.1600036621094
 10
439.2799987792969
 20
414.0400085449219
 10
440.1199951171875
 20
414.1600036621094
 10
440.9599914550781
 20
414.2799987792969
 10
441.91998291015625
 20
414.6400146484375
 10
442.6399841308594
 20
415.239990234375
 10
443.3599853515625
 20
415.8399963378906
 10
444.0799865722656
 20
416.67999267578125
 10
444.55999755859375
 20
417.6400146484375
 10
444.91998291015625
 20
418.8399963378906
  0
LWPOLYLINE
  5
14F
330
17
100
AcDbEntity
  8
0
 62
7
100
AcDbPolyline
 90
3
 70
0
 10
200.47999572753906
 20
396.8800048828125
 10
199.27999877929688
 20
394.4800109863281
 10
199.87998962402344
 20
396.8800048828125
  0
LWPOLYLINE
  5
150
330
17
100
AcDbEntity
  8
0
 62
7
100
AcDbPolyline
 90
32
 70
0
 10
280.5199890136719
 20
388.0
 10
280.3999938964844
 20
388.96002197265625
 10
280.1600036621094
 20
389.67999267578125
 10
279.67999267578125
 20
390.4000244140625
 10
279.0799865722656
 20
390.8800048828125
 10
278.3599853515625
 20
391.239990234375
 10
277.6399841308594
 20
391.4800109863281
 10
276.79998779296875
 20
391.6000061035156
 10
275.9599914550781
 20
391.6000061035156
 10
275.1199951171875
 20
391.3599853515625
 10
274.2799987792969
 20
391.0
 10
273.55999755859375
 20
390.52001953125
 10
272.8399963378906
 20
389.91998291015625
 10
272.239990234375
 20
389.20001220703125
 10
271.6399841308594
 20
388.239990234375
 10
271.2799987792969
 20
387.1600036621094
 10
271.0400085449219
 20
386.08001708984375
 10
271.1600036621094
 20
385.0
 10
271.3999938964844
 20
384.1600036621094
 10
271.8800048828125
 20
383.44000244140625
 10
272.47998046875
 20
382.96002197265625
 10
273.1999816894531
 20
382.4800109863281
 10
273.91998291015625
 20
382.239990234375
 10
274.7599792480469
 20
382.1199951171875
 10
275.7200012207031
 20
382.1199951171875
 10
276.55999755859375
 20
382.3599853515625
 10
277.3999938964844
 20
382.7200012207031
 10
278.239990234375
 20
383.20001220703125
 10
278.9599914550781
 20
383.91998291015625
 10
279.55999755859375
 20
384.760009765625
 10
280.0400085449219
 20
385.7200012207031
 10
280.3999938964844
 20
386.91998291015625
  0
LWPOLYLINE
  5
151
330
17
100
AcDbEntity
  8
0
 62
7
100
AcDbPolyline
 90
3
 70
0
 10
260.3599853515625
 20
383.67999267578125
 10
259.15997314453125
 20
381.2799987792969
 10
259.760009765625
 20
383.67999267578125
  0
LWPOLYLINE
  5
152
330
17
100
AcDbEntity
  8
0
 62
7
100
AcDbPolyline
 90
32
 70
0
 10
346.03997802734375
 20
402.760009765625
 10
345.91998291015625
 20
403.7200012207031
 10
345.55999755859375
 20
404.55999755859375
 10
345.0799865722656
 20
405.1600036621094
 10
344.47998046875
 20
405.760009765625
 10
343.8800048828125
 20
406.1199951171875
 10
343.03997802734375
 20
406.3599853515625
 10
342.32000732421875
 20
406.47998046875
 10
341.47998046875
 20
406.3599853515625
 10
340.6399841308594
 20
406.239990234375
 10
339.79998779296875
 20
405.8800048828125
 10
338.9599914550781
 20
405.4000244140625
 10
338.239990234375
 20
404.79998779296875
 10
337.6399841308594
 20
403.96002197265625
 10
337.1600036621094
 20
403.1199951171875
 10
336.67999267578125
 20
402.0400085449219
 10
336.55999755859375
 20
400.8399963378906
 10
336.55999755859375
 20
399.8800048828125
 10
336.91998291015625
 20
399.0400085449219
 10
337.3999938964844
 20
398.32000732421875
 10
337.8800048828125
 20
397.7200012207031
 10
338.6000061035156
 20
397.3599853515625
 10
339.44000244140625
 20
397.1199951171875
 10
340.2799987792969
 20
397.0
 10
341.1199951171875
 20
397.0
 10
341.9599914550781
 20
397.239990234375
 10
342.79998779296875
 20
397.6000061035156
 10
343.6399841308594
 20
398.08001708984375
 10
344.3599853515625
 20
398.79998779296875
 10
345.0799865722656
 20
399.52001953125
 10
345.55999755859375
 20
400.6000061035156
 10
345.91998291015625
 20
401.67999267578125
  0
LWPOLYLINE
  5
153
330
17
100
AcDbEntity
  8
0
 62
7
100
AcDbPolyline
 90
3
 70
0
 10
643.5199584960938
 20
420.1600036621094
 10
643.5199584960938
 20
420.760009765625
 10
645.9199829101562
 20
421.3599853515625
  0
LWPOLYLINE
  5
154
330
17
100
AcDbEntity
  8
0
 62
7
100
AcDbPolyline
 90
2
 70
0
 10
444.0799865722656
 20
133.83999633789062
 10
444.0799865722656
 20
133.83999633789062
  0
LWPOLYLINE
  5
155
330
17
100
AcDbEntity
  8
0
 62
7
100
AcDbPolyline
 90
2
 70
0
 10
476.1199951171875
 20
294.1600036621094
 10
477.0799865722656
 20
294.0400085449219
  0
LWPOLYLINE
  5
156
330
17
100
AcDbEntity
  8
0
 62
7
100
AcDbPolyline
 90
2
 70
0
 10
649.2799682617188
 20
293.08001708984375
 10
719.719970703125
 20
467.67999267578125
  0
LWPOLYLINE
  5
157
330
17
100
AcDbEntity
  8
0
 62
7
100
AcDbPolyline
 90
2
 70
0
 10
586.5199584960938
 20
466.7200012207031
 10
586.760009765625
 20
467.08001708984375
  0
LWPOLYLINE
  5
158
330
17
100
AcDbEntity
  8
0
 62
7
100
AcDbPolyline
 90
2
 70
0
 10
443.8399963378906
 20
293.79998779296875
 10
444.91998291015625
 20
294.0400085449219
  0
LWPOLYLINE
  5
159
330
17
100
AcDbEntity
  8
0
 62
7
100
AcDbPolyline
 90
3
 70
0
 10
64.75999450683594
 20
98.44000244140625
 10
64.75999450683594
 20
98.44000244140625
 10
743.1199951171875
 20
547.0
  0
LWPOLYLINE
  5
15A
330
17
100
AcDbEntity
  8
0
 62
7
100
AcDbPolyline
 90
3
 70
0
 10
54.20000076293945
 20
88.0
 10
54.20000076293945
 20
88.0
 10
753.6799926757812
 20
547.0
  0
LWPOLYLINE
  5
15B
330
17
100
AcDbEntity
  8
0
 62
7
100
AcDbPolyline
 90
4
 70
0
 10
586.5199584960938
 20
490.1199951171875
 10
586.5199584960938
 20
487.7200012207031
 10
585.9199829101562
 20
487.7200012207031
 10
587.1199951171875
 20
490.1199951171875
  0
LWPOLYLINE
  5
15C
330
17
100
AcDbEntity
  8
0
 62
7
100
AcDbPolyline
 90
4
 70
0
 10
573.4400024414062
 20
490.4800109863281
 10
573.4400024414062
 20
488.08001708984375
 10
572.8399658203125
 20
488.08001708984375
 10
573.9199829101562
 20
490.4800109863281
  0
ENDSEC
  0
SECTION
  2
OBJECTS
  0
DICTIONARY
  5
A
330
0
100
AcDbDictionary
281
1
  3
ACAD_COLOR
350
B
  3
ACAD_GROUP
350
C
  3
ACAD_LAYOUT
350
D
  3
ACAD_MATERIAL
350
E
  3
ACAD_MLEADERSTYLE
350
F
  3
ACAD_MLINESTYLE
350
10
  3
ACAD_PLOTSETTINGS
350
11
  3
ACAD_PLOTSTYLENAME
350
12
  3
ACAD_SCALELIST
350
14
  3
ACAD_TABLESTYLE
350
15
  3
ACAD_VISUALSTYLE
350
16
  3
EZDXF_META
350
2D
  0
DICTIONARY
  5
B
330
A
100
AcDbDictionary
281
1
  0
DICTIONARY
  5
C
330
A
100
AcDbDictionary
281
1
  0
DICTIONARY
  5
D
330
A
100
AcDbDictionary
281
1
  3
Model
350
1A
  3
Layout1
350
1E
  0
DICTIONARY
  5
E
330
A
100
AcDbDictionary
281
1
  3
ByBlock
350
1F
  3
ByLayer
350
20
  3
Global
350
21
  0
DICTIONARY
  5
F
330
A
100
AcDbDictionary
281
1
  3
Standard
350
2C
  0
DICTIONARY
  5
10
330
A
100
AcDbDictionary
281
1
  3
Standard
350
22
  0
DICTIONARY
  5
11
330
A
100
AcDbDictionary
281
1
  0
ACDBDICTIONARYWDFLT
  5
12
330
A
100
AcDbDictionary
281
1
  3
Normal
350
13
100
AcDbDictionaryWithDefault
340
13
  0
ACDBPLACEHOLDER
  5
13
330
12
  0
DICTIONARY
  5
14
330
A
100
AcDbDictionary
281
1
  0
DICTIONARY
  5
15
330
A
100
AcDbDictionary
281
1
  0
DICTIONARY
  5
16
330
A
100
AcDbDictionary
281
1
  0
LAYOUT
  5
1A
330
D
100
AcDbPlotSettings
  1

  4
A3
  6

 40
7.5
 41
20.0
 42
7.5
 43
20.0
 44
420.0
 45
297.0
 46
0.0
 47
0.0
 48
0.0
 49
0.0
140
0.0
141
0.0
142
1.0
143
1.0
 70
1024
 72
1
 73
0
 74
5
  7

 75
16
 76
0
 77
2
 78
300
147
1.0
148
0.0
149
0.0
100
AcDbLayout
  1
Model
 70
1
 71
0
 10
0.0
 20
0.0
 11
420.0
 21
297.0
 12
0.0
 22
0.0
 32
0.0
 14
1e+20
 24
1e+20
 34
1e+20
 15
-1e+20
 25
-1e+20
 35
-1e+20
146
0.0
 13
0.0
 23
0.0
 33
0.0
 16
1.0
 26
0.0
 36
0.0
 17
0.0
 27
1.0
 37
0.0
 76
1
330
17
  0
LAYOUT
  5
1E
330
D
100
AcDbPlotSettings
  1

  4
A3
  6

 40
7.5
 41
20.0
 42
7.5
 43
20.0
 44
420.0
 45
297.0
 46
0.0
 47
0.0
 48
0.0
 49
0.0
140
0.0
141
0.0
142
1.0
143
1.0
 70
0
 72
1
 73
0
 74
5
  7

 75
16
 76
0
 77
2
 78
300
147
1.0
148
0.0
149
0.0
100
AcDbLayout
  1
Layout1
 70
1
 71
1
 10
0.0
 20
0.0
 11
420.0
 21
297.0
 12
0.0
 22
0.0
 32
0.0
 14
1e+20
 24
1e+20
 34
1e+20
 15
-1e+20
 25
-1e+20
 35
-1e+20
146
0.0
 13
0.0
 23
0.0
 33
0.0
 16
1.0
 26
0.0
 36
0.0
 17
0.0
 27
1.0
 37
0.0
 76
1
330
1B
  0
MATERIAL
  5
1F
102
{ACAD_REACTORS
330
E
102
}
330
E
100
AcDbMaterial
  1
ByBlock
  2

 70
0
 40
1.0
 71
1
 41
1.0
 91
-1023410177
 42
1.0
 72
1
  3

 73
1
 74
1
 75
1
 44
0.5
 73
0
 45
1.0
 46
1.0
 77
1
  4

 78
1
 79
1
170
1
 48
1.0
171
1
  6

172
1
173
1
174
1
140
1.0
141
1.0
175
1
  7

176
1
177
1
178
1
143
1.0
179
1
  8

270
1
271
1
272
1
145
1.0
146
1.0
273
1
  9

274
1
275
1
276
1
 42
1.0
 72
1
  3

 73
1
 74
1
 75
1
 94
63
  0
MATERIAL
  5
20
102
{ACAD_REACTORS
330
E
102
}
330
E
100
AcDbMaterial
  1
ByLayer
  2

 70
0
 40
1.0
 71
1
 41
1.0
 91
-1023410177
 42
1.0
 72
1
  3

 73
1
 74
1
 75
1
 44
0.5
 73
0
 45
1.0
 46
1.0
 77
1
  4

 78
1
 79
1
170
1
 48
1.0
171
1
  6

172
1
173
1
174
1
140
1.0
141
1.0
175
1
  7

176
1
177
1
178
1
143
1.0
179
1
  8

270
1
271
1
272
1
145
1.0
146
1.0
273
1
  9

274
1
275
1
276
1
 42
1.0
 72
1
  3

 73
1
 74
1
 75
1
 94
63
  0
MATERIAL
  5
21
102
{ACAD_REACTORS
330
E
102
}
330
E
100
AcDbMaterial
  1
Global
  2

 70
0
 40
1.0
 71
1
 41
1.0
 91
-1023410177
 42
1.0
 72
1
  3

 73
1
 74
1
 75
1
 44
0.5
 73
0
 45
1.0
 46
1.0
 77
1
  4

 78
1
 79
1
170
1
 48
1.0
171
1
  6

172
1
173
1
174
1
140
1.0
141
1.0
175
1
  7

176
1
177
1
178
1
143
1.0
179
1
  8

270
1
271
1
272
1
145
1.0
146
1.0
273
1
  9

274
1
275
1
276
1
 42
1.0
 72
1
  3

 73
1
 74
1
 75
1
 94
63
  0
MLINESTYLE
  5
22
102
{ACAD_REACTORS
330
10
102
}
330
10
100
AcDbMlineStyle
  2
Standard
 70
0
  3

 62
256
 51
90.0
 52
90.0
 71
2
 49
0.5
 62
256
  6
BYLAYER
 49
-0.5
 62
256
  6
BYLAYER
  0
MLEADERSTYLE
  5
2C
102
{ACAD_REACTORS
330
F
102
}
330
F
100
AcDbMLeaderStyle
179
2
170
2
171
1
172
0
 90
2
 40
0.0
 41
0.0
173
1
 91
-1056964608
 92
-2
290
1
 42
2.0
291
1
 43
8.0
  3
Standard
 44
4.0
300

342
29
174
1
175
1
176
0
178
1
 93
-1056964608
 45
4.0
292
0
297
0
 46
4.0
 94
-1056964608
 47
1.0
 49
1.0
140
1.0
294
1
141
0.0
177
0
142
1.0
295
0
296
0
143
3.75
271
0
272
9
273
9
  0
DICTIONARY
  5
2D
330
A
100
AcDbDictionary
280
1
281
1
  3
CREATED_BY_EZDXF
350
2E
  3
WRITTEN_BY_EZDXF
350
15F
  0
DICTIONARYVAR
  5
2E
330
2D
100
DictionaryVariables
280
0
  1
1.4.2 @ 2026-07-17T07:08:34.631332+00:00
  0
DICTIONARYVAR
  5
15F
330
2D
100
DictionaryVariables
280
0
  1
1.4.2 @ 2026-07-17T07:08:34.646086+00:00
  0
ENDSEC
  0
EOF
